<?xml version="1.0" standalone="no"?>
<!DOCTYPE svg PUBLIC "-//W3C//DTD SVG 1.1//EN" "http://www.w3.org/Graphics/SVG/1.1/DTD/svg11.dtd" >
<!--
2013-9-30: Created.
-->
<svg>
<metadata>
Created by iconfont
</metadata>
<defs>

<font id="iconfont" horiz-adv-x="1024" >
  <font-face
    font-family="iconfont"
    font-weight="500"
    font-stretch="normal"
    units-per-em="1024"
    ascent="896"
    descent="-128"
  />
    <missing-glyph />
    
    <glyph glyph-name="x" unicode="x" horiz-adv-x="1001"
d="M281 543q-27 -1 -53 -1h-83q-18 0 -36.5 -6t-32.5 -18.5t-23 -32t-9 -45.5v-76h912v41q0 16 -0.5 30t-0.5 18q0 13 -5 29t-17 29.5t-31.5 22.5t-49.5 9h-133v-97h-438v97zM955 310v-52q0 -23 0.5 -52t0.5 -58t-10.5 -47.5t-26 -30t-33 -16t-31.5 -4.5q-14 -1 -29.5 -0.5
t-29.5 0.5h-32l-45 128h-439l-44 -128h-29h-34q-20 0 -45 1q-25 0 -41 9.5t-25.5 23t-13.5 29.5t-4 30v167h911zM163 247q-12 0 -21 -8.5t-9 -21.5t9 -21.5t21 -8.5q13 0 22 8.5t9 21.5t-9 21.5t-22 8.5zM316 123q-8 -26 -14 -48q-5 -19 -10.5 -37t-7.5 -25t-3 -15t1 -14.5
t9.5 -10.5t21.5 -4h37h67h81h80h64h36q23 0 34 12t2 38q-5 13 -9.5 30.5t-9.5 34.5q-5 19 -11 39h-368zM336 498v228q0 11 2.5 23t10 21.5t20.5 15.5t34 6h188q31 0 51.5 -14.5t20.5 -52.5v-227h-327z" />
    

    
    <glyph glyph-name="ap-user" unicode="&#58880;" d="M324.588 519.598c0-18.081 13.843-32.733 30.874-32.733 0.194 0 0.363 0.013 0.545 0.013 6.39-86.327 74.399-172.717 157.469-172.717 83.044 0 151.053 86.39 157.456 172.717 0.182 0 0.351-0.013 0.545-0.013 17.045 0 30.875 14.653 30.875 32.733 0 13.369-7.517 24.8-18.289 29.901 6.248 19.409 9.67 40.147 9.67 61.778 0 105.586-80.685 191.2-180.255 191.2s-180.256-85.614-180.256-191.2c0-21.631 3.435-42.369 9.669-61.778-10.784-5.1-18.301-16.532-18.301-29.901zM908.115 114.38c-73.596 71.466-163.47 121.937-260.111 146.018-2.436 1.335-5.185 2.074-8.036 2.074h-8.762c-2.773 0-5.495-0.699-7.933-2.022-29.189-15.631-69.214-24.626-109.796-24.626-40.596 0-80.608 8.995-109.823 24.652-2.463 1.296-5.185 1.996-7.946 1.996h-6.364c-1.321 0-2.604-0.169-3.861-0.454-99.182-23.472-191.364-74.512-266.644-147.638-3.267-3.163-5.107-7.492-5.107-12.028v-60.048c0-9.241 7.517-16.785 16.798-16.785h765.894c9.281 0 16.799 7.544 16.799 16.785v60.048c-0.001 4.536-1.854 8.892-5.108 12.028z"  horiz-adv-x="1000" />

    
    <glyph glyph-name="ap-refresh" unicode="&#58882;" d="M702.273 148.407c-52.885-37.518-114.764-56.327-178.021-55.461-8.364 0.088-16.671 0.527-24.875 1.259-3.354 0.321-6.709 0.876-10.078 1.302-6.46 0.866-12.935 1.743-19.221 2.975-3.897 0.747-7.705 1.758-11.513 2.652-6.168 1.466-12.308 2.945-18.327 4.761-2.901 0.908-5.727 1.949-8.599 2.93-6.944 2.358-13.859 4.789-20.597 7.646-1.523 0.617-2.988 1.346-4.512 2.037-7.852 3.502-15.646 7.177-23.147 11.308-0.366 0.192-0.674 0.352-1.039 0.541-25.446 14.153-48.739 31.819-69.16 52.461-0.308 0.321-0.645 0.703-0.981 1.069-6.344 6.447-12.394 13.185-18.151 20.216-1.201 1.495-2.374 3.106-3.589 4.644-41.56 52.648-66.625 119.274-66.625 191.761h70.498c1.821 0 3.583 0.976 4.507 2.691 0.925 1.715 0.77 3.723-0.231 5.245l-118.504 179.971c-0.916 1.39-2.489 2.304-4.276 2.304s-3.362-0.915-4.276-2.304l-118.506-179.967c-1.002-1.522-1.155-3.53-0.231-5.245 0.925-1.715 2.686-2.691 4.508-2.691h70.513c0-85.216 26.237-164.204 70.815-229.512 0.543-0.91 0.938-1.877 1.538-2.786 4.614-6.678 9.742-12.846 14.693-19.16 1.846-2.388 3.575-4.848 5.494-7.191 7.296-8.966 15.045-17.39 23.014-25.622 0.762-0.82 1.465-1.625 2.213-2.358 26.75-27.115 57.001-49.97 89.903-68.237 0.85-0.514 1.7-1.042 2.637-1.525 9.478-5.155 19.219-9.814 29.094-14.224 2.462-1.068 4.864-2.27 7.369-3.326 8.439-3.545 17.11-6.65 25.856-9.61 4.131-1.421 8.233-2.871 12.422-4.174 7.633-2.286 15.441-4.205 23.322-6.094 5.215-1.231 10.4-2.564 15.719-3.589 2.212-0.455 4.292-1.144 6.461-1.48 7.412-1.333 14.883-2.080 22.31-2.988 2.681-0.324 5.318-0.778 8-1.069 13.346-1.334 26.646-2.212 39.935-2.212 81.319 0 160.66 25.181 228.72 73.452 21.683 15.424 26.972 45.69 11.78 67.679-15.236 22.032-45.179 27.35-66.86 11.924M927.917 400.51c-0.044 84.951-26.12 163.781-70.478 228.955-0.645 1.113-1.085 2.241-1.816 3.282-5.508 7.969-11.531 15.397-17.521 22.838-0.688 0.908-1.332 1.861-2.065 2.755-40.596 49.867-91.559 88.38-149.322 113.562-1.598 0.703-3.164 1.48-4.775 2.183-9.216 3.838-18.665 7.237-28.156 10.445-3.428 1.143-6.783 2.402-10.284 3.443-8.277 2.534-16.672 4.6-25.14 6.578-4.673 1.099-9.345 2.3-14.078 3.237-2.343 0.455-4.555 1.157-6.869 1.582-6.314 1.099-12.658 1.582-18.986 2.417-4.395 0.557-8.673 1.245-13.097 1.7-10.635 0.996-21.184 1.42-31.731 1.611-1.934 0-3.794 0.308-5.713 0.308-0.351 0-0.673-0.103-1.025-0.132-81.218-0.058-160.383-24.889-228.356-73.1-21.74-15.381-27.029-45.676-11.822-67.68 15.177-22.004 45.163-27.336 66.859-11.909 52.504 37.223 113.753 56.063 176.57 55.492 9.039-0.058 17.931-0.512 26.721-1.348 2.71-0.308 5.391-0.718 8.086-1.055 7.223-0.894 14.386-1.933 21.446-3.34 3.121-0.615 6.198-1.42 9.243-2.125 6.93-1.581 13.846-3.281 20.613-5.347 2.138-0.688 4.246-1.464 6.386-2.168 7.721-2.563 15.323-5.318 22.796-8.467 0.76-0.322 1.538-0.718 2.27-1.025 44.739-19.484 83.985-49.471 114.603-87.003 0.192-0.219 0.38-0.513 0.557-0.732 43.098-53.119 69.043-121.018 69.072-194.954h-70.528c-1.821 0-3.583-0.976-4.507-2.691s-0.77-3.723 0.232-5.245l118.532-179.954c0.915-1.389 2.489-2.304 4.277-2.304 1.787 0.001 3.361 0.917 4.275 2.305l118.477 179.954c1.003 1.522 1.156 3.529 0.231 5.245-0.924 1.715-2.686 2.691-4.507 2.691l-70.473-0.001z"  horiz-adv-x="1024" />

    
    <glyph glyph-name="ap-exit" unicode="&#58883;" d="M976.541 384l-210.938 210.938v-158.203h-342.773c-14.561 0-26.367-11.806-26.367-26.367v-52.734c0-14.561 11.806-26.367 26.367-26.367h342.773v-158.203l210.938 210.938zM634.592 173.062h-52.734c-14.562 0-26.367-11.806-26.367-26.367v-79.926h-316.406v632.813h316.406v-79.102c0-14.562 11.806-26.367 26.367-26.367h52.734c14.561 0 26.367 11.805 26.367 26.367v158.203c0 14.561-11.806 26.367-26.367 26.367h-476.257c-13.651 0-24.719-11.067-24.719-24.719v-794.313c0-13.651 11.067-24.719 24.719-24.719h425.171c2.157 0 4.238 0.305 6.231 0.825h44.854c14.561 0 26.367 11.806 26.367 26.367v158.203c0 14.561-11.806 26.367-26.367 26.367z"  horiz-adv-x="1024" />

    
    <glyph glyph-name="ap-phone" unicode="&#58884;" d="M881.471 170.206c0-137.895-63.215-137.614-368.459-137.614-305.224 0-368.439-0.281-368.439 137.614 0 150.503 164.959 450.785 368.439 450.785 203.495 0 368.459-300.283 368.459-450.785zM514.090 556.454c-86.461 0-156.545-70.501-156.545-157.471 0-86.98 70.084-157.471 156.545-157.471 86.449 0 156.535 70.491 156.535 157.471 0.001 86.969-70.086 157.471-156.535 157.471zM185.975 440.537c64.176 103.347 175.115 213.604 326.269 213.604 151.115 0 269.263-119.321 322.809-212.69 27.673-46.333 80.812-41.428 103.974 0 14.885 31.002 61.396 290.687-426.783 290.687-493.658-0.659-442.648-268.311-425.314-290.688 30.702-46.951 88.544-23.014 99.045-0.913z"  horiz-adv-x="1024" />

    
    <glyph glyph-name="ap-delete1" unicode="&#58907;" d="M789.952 583.552h-23.232v-581.696h-76.352v581.696h-127.424v-581.696h-76.416v581.696h-127.36v-581.696h-76.48v581.696h-48.64c-57.536 0-104.256 0.832-104.256 0v-607.808c0-55.936 46.656-101.248 104.256-101.248h555.904c57.536 0 104.192 45.312 104.192 101.248v607.808c0 4.288-46.656 0-104.192 0v0zM944.192 766.144h-228.352v62.144c0 36.032-64.384 65.216-101.952 65.216h-203.84c-37.504 0-101.888-29.184-101.888-65.216v-62.144h-228.352c-28.672 0-51.904-22.848-51.904-50.944s23.232-50.944 51.904-50.944h864.384c28.672 0 51.904 22.784 51.904 50.944s-23.296 50.944-51.904 50.944v0zM613.888 766.144h-203.776v25.472h203.776v-25.472zM613.888 766.144z"  horiz-adv-x="1024" />

    
    <glyph glyph-name="ap-detailsetting" unicode="&#58885;" d="M936.615 460.963l-79.833 33.217c-0.224 0.080-0.498 0.193-0.74 0.273-6.144 19.4-14.139 38.59-23.685 56.96 0.297 0.612 0.594 1.223 0.827 1.866l32.526 78.812c5.331 12.885 2.397 27.692-7.481 37.537l-62.442 62.461c-9.83 9.837-24.629 12.789-37.512 7.48l-79.698-32.879c-0.313-0.145-0.675-0.338-1.012-0.499-18.482 9.603-37.634 17.565-56.936 23.694-0.193 0.442-0.37 0.885-0.54 1.319l-32.967 79.237c-5.342 12.852-17.88 21.249-31.817 21.249h-88.304c-13.939 0-26.501-8.397-31.858-21.249l-33.169-79.841c-0.112-0.233-0.193-0.499-0.304-0.732-19.353-6.129-38.518-14.091-56.912-23.678-0.611 0.305-1.287 0.588-1.898 0.853l-78.828 32.524c-12.869 5.308-27.684 2.356-37.552-7.511l-62.405-62.429c-9.885-9.844-12.82-24.652-7.489-37.537l32.863-79.712c0.153-0.305 0.362-0.675 0.474-0.981-9.611-18.547-17.573-37.705-23.67-56.952-0.443-0.185-0.909-0.346-1.351-0.523l-79.198-32.959c-12.901-5.357-21.249-17.92-21.249-31.834v-88.302c0-13.914 8.372-26.502 21.249-31.834l79.825-33.192c0.209-0.105 0.499-0.178 0.725-0.29 6.144-19.351 14.107-38.501 23.678-56.927-0.306-0.652-0.588-1.271-0.869-1.947l-32.476-78.772c-5.333-12.869-2.396-27.668 7.464-37.521l62.428-62.442c9.868-9.853 24.684-12.82 37.552-7.496l79.689 32.871c0.306 0.129 0.668 0.338 1.014 0.499 18.394-9.572 37.536-17.517 56.959-23.703 0.17-0.474 0.347-0.901 0.514-1.335l32.937-79.222c5.356-12.861 17.919-21.249 31.858-21.249h88.304c13.937 0 26.474 8.388 31.817 21.249l33.201 79.841c0.080 0.226 0.2 0.499 0.305 0.748 19.4 6.154 38.565 14.099 56.96 23.671 0.618-0.307 1.245-0.587 1.874-0.869l78.779-32.509c12.893-5.308 27.667-2.365 37.545 7.479l62.442 62.445c9.878 9.853 12.812 24.659 7.481 37.544l-32.864 79.689c-0.152 0.322-0.345 0.692-0.489 0.998 9.57 18.417 17.541 37.591 23.702 56.975 0.452 0.169 0.901 0.338 1.336 0.531l79.198 32.935c12.9 5.332 21.273 17.92 21.273 31.834v88.302c-0.001 13.913-8.374 26.493-21.251 31.833zM511.147 256.514c-70.953 0-128.452 57.506-128.452 128.461 0 70.962 57.499 128.46 128.452 128.46 70.954 0 128.454-57.498 128.454-128.46 0.001-70.955-57.5-128.461-128.454-128.461z"  horiz-adv-x="1024" />

    
    <glyph glyph-name="ap-upreport" unicode="&#58887;" d="M480.412 134.574v13.46c0 3.566 0.263 7.79 0.875 12.561l-213.958-0c-14.97 0-27.839 5.341-38.52 16.086-10.681 10.746-16.021 23.877-16.021 39.393s5.34 28.801 16.021 39.875c10.681 11.052 23.549 16.545 38.52 16.545h252.040c21.929 35.257 50.95 63.357 87.018 84.191 36.112 20.944 75.814 31.361 119.104 31.361 4.596 0 9.498-0.153 14.707-0.482 5.166-0.219 10.375-0.7 15.628-1.357l0 222.136h-126.458c-16.196 0-30.028 3.721-41.584 11.205-11.556 7.484-20.923 16.72-28.145 27.794-7.224 10.965-12.563 23.067-16.021 36.198-3.459 13.131-5.21 25.387-5.21 36.767l0 111.898h-401.379c-8.317 0-16.633-3.261-22.959-9.805-6.369-6.587-9.52-15.188-9.52-23.789v-660.605h-0.044v-113.014c0-8.601 3.196-17.18 9.52-23.789 6.325-6.523 14.642-9.784 22.959-9.784h76.897c0.788-0.087 1.576-0.087 2.364-0.087h307.456c-13.833 20.287-24.512 42.5-32.042 66.684-7.529 24.206-11.25 49.747-11.25 76.556zM228.853 480.294c10.637 10.746 23.505 16.064 38.476 16.064h324.789c14.971 0 27.839-5.318 38.52-16.064s16.021-23.877 16.021-39.393-5.341-28.823-16.021-39.875-23.549-16.566-38.52-16.566l-324.789-0c-14.97 0-27.839 5.515-38.476 16.566-10.724 11.052-16.065 24.359-16.065 39.875s5.341 28.647 16.065 39.393zM904.301 209.859c-10.112 23.877-23.812 44.734-41.146 62.636-17.29 17.924-37.513 32.149-60.58 42.588-23.068 10.418-47.932 15.67-74.501 15.67-26 0-50.512-5.253-73.625-15.67-23.067-10.417-43.291-24.665-60.58-42.588-17.333-17.902-31.078-38.759-41.146-62.636-10.112-23.855-15.19-49.264-15.19-76.161 0-27.443 5.078-53.159 15.19-77.036s23.812-44.733 41.146-62.636c17.29-17.902 37.513-32.149 60.58-42.566 23.112-10.439 47.625-15.67 73.625-15.67 26.569 0 51.432 5.231 74.501 15.67 23.067 10.417 43.291 24.665 60.58 42.566 17.333 17.903 31.034 38.759 41.146 62.636 10.111 23.877 15.189 49.592 15.189 77.036 0 26.897-5.078 52.306-15.189 76.161zM760.466 148.099v-135.95c0-16.523-13.351-29.896-29.853-29.896-8.273 0-15.714 3.348-21.141 8.754-5.384 5.405-8.755 12.868-8.755 21.142v135.95h-92.49l123.261 121.44 123.218-121.441h-94.24zM657.82 665.639h98.006v132.975c0 8.601-3.195 17.202-9.542 23.789-6.347 6.544-14.664 9.805-22.98 9.805h-130.398v-99.403c0-17.202 6.303-34.382 18.996-47.513 12.695-13.043 29.328-19.653 45.918-19.653z"  horiz-adv-x="1024" />

    
    <glyph glyph-name="ap-fullscreen" unicode="&#58888;" d="M908.843 31.95c3.403-26.029-8.223-38.215-34.879-36.553l-209.27 23.261c-16.447 1.662-26.939 6.23-31.476 13.709-4.537 7.476-1.985 15.923 7.657 25.337 6.238 5.538 13.894 13.152 22.967 22.847 9.075 9.69 16.732 17.582 22.97 23.675 6.237 6.647 8.224 12.74 5.954 18.277-2.268 5.538-6.806 11.907-13.61 19.106-15.881 14.954-30.342 28.522-43.386 40.708-13.043 12.185-27.505 26.308-43.385 42.369-3.403 3.321-6.806 6.921-10.208 10.8-3.403 3.876-5.955 8.168-7.656 12.875-1.702 4.71-1.986 9.692-0.852 14.954s4.821 10.938 11.059 17.030c3.404 3.324 6.238 6.23 8.508 8.724 2.268 2.492 4.537 4.707 6.806 6.646 2.269 1.939 4.679 4.154 7.231 6.646 2.552 2.493 5.813 5.954 9.783 10.386 11.343 11.075 21.834 15.784 31.475 14.12 9.642-1.659 20.134-8.030 31.476-19.105 11.343-11.076 22.969-22.292 34.879-33.646 11.909-11.354 25.238-24.229 39.983-38.629 10.774-9.969 19.99-16.893 27.648-20.771 7.655-3.876 15.17-2.215 22.542 4.985 5.105 4.985 11.485 10.938 19.142 17.861 7.655 6.923 14.32 13.153 19.99 18.691 9.641 9.416 18.29 13.017 25.947 10.8 7.655-2.214 12.335-10.523 14.036-24.923l24.668-210.18zM117.698 734.77c-1.702 14.4 0.142 24.369 5.529 29.907 5.388 5.539 14.887 7.754 28.499 6.646l209.271-23.261c17.014-1.662 27.648-6.231 31.902-13.708 4.254-7.477 1.56-15.923-8.081-25.338-5.672-5.538-12.619-12.739-20.842-21.6-8.224-8.861-15.454-16.338-21.692-22.43-6.806-6.647-9.074-12.739-6.806-18.277 2.268-5.538 7.089-11.908 14.462-19.107 7.373-7.754 14.32-14.538 20.842-20.353 6.523-5.816 12.902-11.631 19.141-17.446 6.238-5.815 12.76-12.046 19.566-18.692l21.267-20.769c3.403-3.323 6.664-7.2 9.783-11.63 3.12-4.431 5.387-9.139 6.806-14.123 1.417-4.985 1.276-10.246-0.426-15.785-1.702-5.538-5.387-11.076-11.059-16.615l-9.357-9.138c-2.269-2.216-4.395-4.431-6.381-6.646-1.985-2.216-4.395-4.431-7.23-6.646l-9.358-9.969c-11.343-11.077-21.125-15.23-29.349-12.461-8.224 2.77-18.006 9.693-29.349 20.769-11.343 11.076-22.118 21.461-32.327 31.153-10.208 9.692-22.685 21.738-37.43 36.138-10.208 9.969-19.283 16.892-27.221 20.769-7.94 3.877-15.597 2.215-22.969-4.984-5.104-5.538-12.193-12.323-21.267-20.353-9.074-8.031-16.447-14.815-22.118-20.354-9.641-9.415-18.148-13.015-25.521-10.8s-11.91 10.523-13.611 24.923l-24.67 210.18zM872.264 772.154c14.745 1.661 24.953-0.138 30.624-5.4 5.672-5.262 7.941-14.815 6.806-28.661l-23.82-204.366c-1.701-16.062-6.378-26.307-14.037-30.739-7.655-4.431-16.305-1.661-25.945 8.308-5.672 5.538-13.044 12.323-22.118 20.353-9.075 8.031-16.731 15.092-22.97 21.184-6.804 6.093-13.043 8.17-18.714 6.231-5.672-1.938-12.193-6.507-19.566-13.707-15.313-14.954-28.783-28.523-40.408-40.707-11.626-12.184-25.378-26.030-41.259-41.538-3.403-3.323-7.373-6.507-11.91-9.553-4.537-3.047-9.357-5.262-14.462-6.646-5.104-1.385-10.492-1.246-16.163 0.416s-11.342 5.538-17.014 11.63c-3.402 3.323-6.378 6.092-8.933 8.308-2.551 2.216-4.961 4.43-7.23 6.646-2.269 2.215-4.679 4.43-7.231 6.646-2.551 2.215-5.813 5.538-9.782 9.969-11.343 11.077-15.881 20.769-13.611 29.076 2.268 8.308 9.357 18 21.266 29.077l32.327 33.23c10.775 11.078 23.536 23.815 38.282 38.215 10.776 9.97 18.147 18.831 22.118 26.584 3.969 7.754 1.985 14.954-5.956 21.6-5.104 4.984-11.625 11.769-19.566 20.354-7.939 8.584-14.745 15.646-20.417 21.184-9.641 9.416-13.328 17.723-11.059 24.922 2.268 7.2 10.776 11.63 25.521 13.292l215.227 24.092zM151.725 0.383c-14.178-1.109-24.244 0.969-30.2 6.229-5.955 5.262-8.365 14.54-7.231 27.832l23.819 204.364c1.702 16.615 6.381 27.001 14.037 31.155 7.655 4.152 16.304 1.521 25.946-7.893 5.671-5.54 13.47-12.737 23.393-21.599 9.925-8.864 18.006-16.34 24.245-22.433 6.806-6.645 12.476-9.552 17.014-8.721 4.537 0.828 10.207 4.845 17.014 12.045 7.373 7.199 14.462 14.261 21.267 21.185 6.806 6.923 13.611 13.706 20.417 20.352 6.806 6.647 13.752 13.57 20.841 20.771 7.089 7.199 14.603 14.675 22.544 22.43 3.402 3.323 7.089 6.647 11.058 9.969 3.97 3.323 8.365 5.816 13.186 7.478 4.821 1.662 9.925 1.8 15.313 0.415 5.387-1.384 11.201-5.124 17.44-11.214 3.403-3.324 6.38-6.093 8.932-8.31 2.553-2.214 4.962-4.429 7.231-6.645l6.806-7.479 10.209-9.138c11.342-11.076 16.305-21.185 14.887-30.322-1.417-9.138-8.082-19.522-19.992-31.153-10.775-10.523-22.118-21.737-34.028-33.646-11.91-11.906-25.238-25.061-39.983-39.46-10.208-9.969-16.589-18.137-19.141-24.508-2.553-6.369-0.142-13.152 7.231-20.354 5.672-4.983 12.051-11.214 19.141-18.692 7.089-7.476 13.47-13.982 19.141-19.522 9.642-9.414 13.186-17.724 10.634-24.923-2.553-7.2-11.202-11.631-25.946-13.292l-215.227-24.921z"  horiz-adv-x="1024" />

    
    <glyph glyph-name="ap-modify1" unicode="&#58889;" d="M952.225 701.1c-6.605-23.589-12.469-45.505-28.767-58.711-142.617-115.554-256.929-259.031-386.274-387.592-3.4-3.382-7.465-6.366-9.998-10.317-54.97-85.734-151.13-96.668-235.285-128.94-18.067-6.925-46.33 25.274-40.91 44.405 15.274 53.884 30.227 107.872 46.651 161.407 2.781 9.062 11.453 16.902 18.745 23.909 123.017 118.136 246.695 235.586 369.095 354.356 29.194 28.327 54.496 60.7 81.2 91.555 36.053 41.657 86.453 45.012 125.737 6.382 23.65-23.253 52.392-43.477 57.823-80.137 0.706-4.75 1.465-9.49 2.199-14.233 1.792-1.075-2.010-1.010-0.216-2.085zM728.467 661.696c-119.254-119.485-238.286-238.746-354.773-355.458 20.064-20.331 42.272-42.832 61.666-62.479 119.093 116.512 239.25 234.061 358.814 351.032-24.353 24.799-46.529 47.377-65.707 66.905zM756.956 712.192c29.626-28.375 55.443-53.104 85.937-82.313 5.45 7.427 10.73 16.602 17.852 23.995 51.434 53.375 51.547 53.258-2.623 104.552-1.159 1.102-2.216 2.32-3.405 3.387-14.98 13.441-30.175 13.594-44.972 0.005-17.073-15.672-33.789-31.728-52.789-49.626zM315.466 179.997c27.45 11.054 49.103 19.771 67.623 27.228-14.226 16.733-27.239 32.040-42.555 50.059-8.531-26.289-15.78-48.647-25.068-77.287zM487.564-15.797c-79.358 0-158.718-0.121-238.076 0.052-43.457 0.096-81.848 11.845-111.004 46.901-19.224 23.113-24.674 49.978-24.717 78.487-0.239 157.916-0.859 315.84 0.184 473.752 0.554 84.775 52.895 135.3 137.802 135.793 85.772 0.498 171.548 0.017 257.319 0.188 18.791 0.035 36.701-1.446 39.101-25.177 1.758-17.364-12.444-26.126-40.304-26.148-83.362-0.070-166.733 0.125-250.103-0.080-59.628-0.148-93.501-34.377-93.518-94.092-0.056-152.297-0.070-304.597-0.033-456.894 0.009-47.119 31.754-80.758 79.321-80.935 162.725-0.616 325.454-0.494 488.179-0.109 38.499 0.090 63.437 27.559 63.607 69.245 0.426 104.197 0.203 208.396 0.362 312.598 0.014 7.956-1.842 17.989 2.141 23.398 6.704 9.11 18.148 21.82 26.206 20.893 8.423-0.968 15.839-15.813 22.352-25.493 2.247-3.336 0.514-9.382 0.514-14.191 0.009-103.408 0.144-206.817-0.038-310.225-0.15-87.069-41.202-127.859-128.423-127.953-76.958-0.079-153.915-0.018-230.872-0.009z"  horiz-adv-x="1024" />

    
    <glyph glyph-name="ap-remind" unicode="&#58890;" d="M890.313 115.736c-12.506 17.114-26.494 37.516-41.958 61.213-15.471 23.693-30.114 49.854-43.937 78.484-13.821 28.63-25.668 58.907-35.542 90.83-9.872 31.922-14.808 64.336-14.808 97.248 0 32.248-4.44 61.533-13.326 87.864-8.889 26.325-20.732 49.689-35.542 70.097-14.809 20.4-32.251 37.513-52.328 51.334-20.074 13.82-41.298 24.355-63.677 31.595 4.608 7.24 8.229 15.299 10.861 24.184 2.631 8.892 3.947 17.939 3.947 27.15 0 26.986-9.218 49.696-27.646 68.126-18.424 18.429-41.134 27.641-68.12 27.641s-49.689-9.212-68.12-27.641c-18.429-18.43-27.641-41.14-27.641-68.126 0-18.429 5.263-36.198 15.792-53.312-21.063-7.241-41.299-17.77-60.717-31.589-19.412-13.827-36.524-30.606-51.334-50.352-14.809-19.745-26.823-42.783-36.039-69.107-9.213-26.332-13.822-55.95-13.822-88.854 0-34.229-4.937-66.968-14.81-98.234-9.872-31.263-21.552-60.88-35.045-88.854-13.495-27.969-27.81-54.135-42.948-78.484-15.136-24.354-28.301-46.404-39.491-66.149-7.238-11.188-8.719-20.569-4.443-28.139 4.279-7.568 11.023-11.354 20.241-11.354h720.704c3.946 0 7.895 1.153 11.844 3.457 3.952 2.306 7.239 5.429 9.872 9.377 2.637 3.952 4.117 8.721 4.444 14.315 0.333 5.601-1.803 11.356-6.411 17.28zM535.887 709.082c-7.24-7.24-16.125-11.189-26.658-11.849h-1.978c-10.528 0-19.412 3.785-26.652 11.352-7.241 7.574-10.861 16.622-10.861 27.15 0 11.189 3.621 20.407 10.861 27.647s16.452 10.861 27.641 10.861c11.189 0 20.407-3.621 27.647-10.861s10.855-16.458 10.855-27.647c0-10.528-3.615-19.413-10.855-26.653zM512.001-63.502c51.228 0 92.757 41.528 92.757 92.756h-185.513c0-51.229 41.528-92.756 92.756-92.756z"  horiz-adv-x="1024" />

    
    <glyph glyph-name="ap-weibo" unicode="&#58891;" d="M-56.57 948.89v0 0zM743.314 420.4q-16.558 3.318-21.501 9.921t-1.659 12.145l3.318 5.508q1.094 1.094 2.224 3.318t4.414 9.391 4.978 14.334 2.753 17.652-0.564 19.877-6.638 20.407-13.805 19.877q-15.463 15.463-40.284 19.877t-49.641 0.564-46.885-9.921-36.4-11.581l-14.334-6.638q-11.050-3.318-18.218-4.414t-11.050 0.564-6.073 3.318-1.659 7.732 1.094 10.485 2.753 13.805 3.318 14.899q0 13.239-1.659 24.819t-7.167 25.914-15.994 23.161-26.48 14.334-41.379 3.318-57.372-13.239q-38.624-13.239-78.342-39.154t-68.951-54.052-53.523-54.618-37.53-43.038l-12.145-17.652q-36.4-47.451-54.052-94.901t-16.558-71.707v-23.161q6.638-52.958 32.551-94.901t61.785-67.857 84.415-44.132 93.242-26.48 94.337-11.581q81.662-6.638 169.36 12.675t163.289 66.763 106.481 113.649q18.747 38.624 19.313 72.836t-11.581 55.712-31.457 38.060-36.4 24.29-30.327 9.921zM406.816 77.265q-119.156-5.508-202.443 46.356t-83.285 131.301q0 78.342 82.756 135.15t203.007 62.35 203.007-39.718 82.756-123.569q0-79.438-84.415-142.882t-201.348-68.951zM374.83 382.906q-31.986-3.318-57.372-14.899t-39.718-26.48-24.29-31.986-13.805-33.646-4.978-30.327-1.094-21.501l1.094-8.827v-4.414q0-3.318 2.224-13.239t6.073-18.218 12.675-18.218 20.972-16.558q72.836-35.306 135.714-21.501t101.503 63.443q15.463 18.747 20.407 46.356t-2.224 55.712-24.819 51.299-52.394 35.871-80.003 7.167zM335.11 174.355q-6.638-1.094-12.675-0.564t-11.050 2.224-9.921 3.847-8.261 6.073-6.073 7.732-4.414 8.827-1.659 10.485q0 12.145 6.638 23.725t18.218 19.877 25.914 9.391q9.921 1.094 19.313-0.564t15.994-5.508 11.581-8.827 7.167-11.581 2.224-14.334q0-12.145-7.167-23.161t-19.313-18.747-26.48-8.827zM428.882 253.793q-7.732-5.508-15.994-4.978t-11.581 7.167l-2.224 4.414q-1.094 2.224-1.094 4.414v4.414q0 3.318 1.094 5.508l2.224 4.414q1.094 2.224 3.318 3.318l3.318 4.414q8.827 6.638 17.088 5.508t11.581-8.827q3.318-4.414 2.753-9.921t-3.318-10.485-7.167-9.391zM820.562 484.409q6.638 0 12.145 3.318t8.827 8.261 4.414 10.485q1.094 1.094 1.094 3.318 13.239 125.794-88.265 143.446-29.798 5.508-55.182 1.094-7.732 0-13.239-3.847t-9.391-9.921-3.847-12.675q0-11.050 7.732-18.747t18.747-7.732q86.075 19.877 92.677-55.182 2.224-18.747-2.224-35.306 0-11.050 7.732-18.747t18.747-7.732zM801.815 795.522q-48.545 11.050-130.207-4.414-1.094 0-2.224-1.094l-1.094-2.224-1.094-1.094q-12.145-3.318-19.877-13.805t-7.732-22.63q0-16.558 11.050-27.574t26.48-11.050h3.318q1.094 0 4.978 1.094t8.261 1.659 9.391 2.224 8.827 3.318 14.899 1.659 27.044-1.659 35.306-8.261 38.624-16.558 38.624-27.574 33.646-40.813q28.704-65.104 11.050-125.794 0-1.094-0.564-2.224t-1.659-5.508-2.224-8.261-2.224-9.921-1.094-10.485q0-9.921 5.508-16.558t13.805-9.391 19.313-2.753q30.893 0 36.4 37.53 13.239 43.038 14.899 82.192t-5.508 68.951-21.501 55.712-33.116 44.132-41.943 33.116-44.697 23.725-44.697 14.334z"  horiz-adv-x="1024" />

    
    <glyph glyph-name="ap-wechat" unicode="&#58892;" d="M669.103 528.162c10.238 0 20.367-0.751 30.414-1.87-27.328 127.249-163.368 221.791-318.657 221.791-173.605 0-315.816-118.336-315.816-268.599 0-86.735 47.313-157.963 126.375-213.207l-31.587-95.004 110.405 55.364c39.504-7.819 71.201-15.861 110.622-15.861 9.911 0 19.74 0.491 29.486 1.258-6.171 21.116-9.746 43.231-9.746 66.174 0.001 137.979 118.486 249.954 268.504 249.954zM499.292 613.792c23.779 0 39.53-15.643 39.53-39.41 0-23.669-15.752-39.531-39.53-39.531-23.671 0-47.422 15.861-47.422 39.531 0 23.765 23.751 39.41 47.422 39.41zM278.264 534.851c-23.67 0-47.558 15.861-47.558 39.531 0 23.766 23.887 39.41 47.558 39.41 23.669 0 39.422-15.643 39.422-39.41 0-23.67-15.753-39.531-39.422-39.531zM957.344 282.004c0 126.267-126.348 229.191-268.258 229.191-150.264 0-268.612-102.925-268.612-229.191 0-126.485 118.347-229.19 268.612-229.19 31.451 0 63.174 7.931 94.762 15.847l86.624-47.434-23.752 78.926c63.393 47.56 110.623 110.625 110.623 181.852zM601.996 321.522c-15.725 0-31.586 15.643-31.586 31.602 0 15.737 15.861 31.586 31.586 31.586 23.891 0 39.533-15.849 39.533-31.586 0-15.958-15.642-31.602-39.533-31.602zM775.713 321.522c-15.617 0-31.368 15.643-31.368 31.602 0 15.737 15.753 31.586 31.368 31.586 23.669 0 39.531-15.849 39.531-31.586 0-15.958-15.862-31.602-39.531-31.602z"  horiz-adv-x="1024" />

    
    <glyph glyph-name="ap-option" unicode="&#58893;" d="M237.94 590.451h39.933v-39.933h-39.933v39.933zM323.211 590.451h459.497v-39.933h-459.497v39.933zM237.94 464.075h39.933v-39.933h-39.933v39.933zM323.211 464.075h459.497v-39.933h-459.497v39.933zM237.94 339.039h39.933v-39.933h-39.933v39.933zM323.211 339.039h459.497v-39.933h-459.497v39.933zM237.94 212.663h39.933v-39.933h-39.933v39.933zM323.211 212.663h459.497v-39.933h-459.497v39.933zM792.806 50.46h-561.612c-42.53 0-77.142 34.611-77.142 77.142v509.528c0 42.53 34.611 77.142 77.142 77.142h561.528c42.572 0 77.183-34.611 77.183-77.142v-509.528c0-42.53-34.611-77.142-77.1-77.142zM231.194 672.369c-19.443 0-35.24-15.797-35.24-35.24v-509.528c0-19.443 15.797-35.24 35.24-35.24h561.612c19.401 0 35.198 15.797 35.198 35.24l0 509.528c0 19.443-15.839 35.24-35.281 35.24l-561.528 0z"  horiz-adv-x="1024" />

    
    <glyph glyph-name="ap-menu" unicode="&#58894;" d="M47.86 788.412h112.261v-112.203h-112.261v112.203zM280.044 788.412h696.088v-112.203h-696.088v112.203zM47.86 556.228h112.261v-112.203h-112.261v112.203zM280.044 556.228h696.088v-112.203h-696.088v112.203zM47.86 324.044h112.261v-112.203h-112.261v112.203zM280.044 324.044h696.088v-112.203h-696.088v112.203zM47.86 91.86h112.261v-112.203h-112.261v112.203zM280.044 91.86h696.088v-112.203h-696.088v112.203z"  horiz-adv-x="1024" />

    
    <glyph glyph-name="infenicon17" unicode="&#58932;" d="M360.32 384c-0-70.692 57.308-128 128-128s128 57.308 128 128c0 70.692-57.308 128-128 128-70.692 0-128-57.308-128-128z"  horiz-adv-x="1024" />

    
    <glyph glyph-name="ap-arrow-left" unicode="&#58895;" d="M261.15 449.758l371.262 371.137c29.953 29.953 78.595 29.953 108.421 0v0c30.016-30.016 30.016-78.469 0.125-108.547v0l-316.83-316.766 316.83-317.020c29.89-29.952 29.89-78.406 0-108.42v0c-29.953-29.953-78.594-29.953-108.546 0v0l-371.262 371.134c-14.093 14.284-22.337 33.981-22.337 54.307v0c-0 20.197 8.242 39.958 22.337 54.177v0z"  horiz-adv-x="1024" />

    
    <glyph glyph-name="ap-help" unicode="&#58896;" d="M512.697 832.555c-247.539 0-448.208-200.65-448.208-448.208 0-247.52 200.669-448.208 448.208-448.208s448.208 200.688 448.208 448.208c0 247.558-200.669 448.208-448.208 448.208zM510.988 160.862c-25.551 0-46.26 21.301-46.26 47.563s20.709 47.563 46.26 47.563c25.561 0 46.27-21.301 46.27-47.563s-20.71-47.563-46.27-47.563zM640.212 459.778c-6.383-12.292-13.97-22.87-22.751-31.77-8.781-8.937-24.557-23.928-47.299-45.047-6.291-5.945-11.334-11.161-15.119-15.684-3.792-4.487-6.62-8.608-8.463-12.366-1.869-3.72-3.292-7.477-4.303-11.197-1.013-3.757-2.544-10.322-4.579-19.733-3.518-19.95-14.525-29.91-33.027-29.91-9.612 0-17.708 3.248-24.266 9.776-6.574 6.53-9.848 16.195-9.848 29.071 0 16.086 2.399 30.056 7.204 41.837 4.815 11.818 11.189 22.177 19.15 31.077 7.96 8.9 18.685 19.514 32.18 31.806 11.836 10.724 20.399 18.822 25.66 24.293 5.287 5.471 9.72 11.562 13.323 18.273 3.61 6.712 5.415 14.007 5.415 21.849 0 15.356-5.508 28.306-16.504 38.846-11.017 10.541-25.205 15.831-42.594 15.831-20.355 0-35.336-5.325-44.948-15.976-9.62-10.651-17.754-26.298-24.42-47.053-6.291-21.666-18.22-32.499-35.791-32.499-10.35 0-19.103 3.793-26.217 11.38-7.121 7.587-10.678 15.794-10.678 24.584 0 18.237 5.635 36.695 16.915 55.406 11.28 18.675 27.757 34.176 49.396 46.433 21.631 12.293 46.889 18.421 75.742 18.421 26.826 0 50.49-5.143 71.026-15.393 20.535-10.249 36.393-24.22 47.581-41.837 11.19-17.654 16.788-36.839 16.788-57.558 0.001-16.305-3.191-30.604-9.573-42.859z"  horiz-adv-x="1024" />

    
    <glyph glyph-name="ap-add1" unicode="&#58897;" d="M890.648 21.968c-98.574-96.681-229.646-149.968-369.046-149.968-139.341 0-270.355 53.248-368.853 149.871-98.536 96.758-152.769 225.319-152.75 362.129 0 136.772 54.272 265.371 152.827 362.071 98.517 96.681 229.511 149.929 368.872 149.929 139.399 0 270.394-53.248 368.949-149.91 203.409-199.699 203.37-524.501 0-724.123zM836.241 688.901c-83.929 83.91-195.526 130.106-314.252 130.106-118.707 0-230.265-46.196-314.194-130.106-83.929-83.891-130.164-195.526-130.164-314.271 0-118.745 46.177-230.361 130.087-314.271 83.91-83.871 195.507-130.145 314.194-130.145 118.745 0 230.381 46.293 314.329 130.241 173.249 173.211 173.249 455.158 0 628.446zM763.344 335.698c0 0-202.868 0-202.868 0s0-202.868 0-202.868c0-15.998-12.984-28.981-28.981-28.981 0 0-19.321 0-19.321 0-15.998 0-28.981 12.984-28.981 28.981 0 0 0 202.868 0 202.868 0 0-202.868 0-202.868 0-15.998 0-28.981 12.984-28.981 28.981 0 0 0 19.321 0 19.321 0 15.998 12.984 28.981 28.981 28.981 0 0 202.868 0 202.868 0 0 0 0 202.868 0 202.868 0 15.998 12.984 28.981 28.981 28.981 0 0 19.321 0 19.321 0 15.998 0 28.981-12.984 28.981-28.981 0 0 0-202.868 0-202.868 0 0 202.868 0 202.868 0 15.998 0 28.981-12.984 28.981-28.981 0 0 0-19.321 0-19.321 0-15.998-12.984-28.981-28.981-28.981z"  horiz-adv-x="1044" />

    
    <glyph glyph-name="ap-search" unicode="&#58898;" d="M934.506-38.857c-32.825-32.831-86.055-32.831-118.885 0l-148.375 148.38c-61.003-39.107-133.115-62.454-210.964-62.454-216.658 0-392.304 175.64-392.304 392.304s175.645 392.304 392.304 392.304c216.67 0 392.304-175.64 392.304-392.304 0-77.844-23.342-149.955-62.449-210.97l148.369-148.369c32.831-32.831 32.831-86.060-0-118.891zM456.282 719.59c-154.753 0-280.212-125.458-280.212-280.217s125.458-280.217 280.212-280.217c154.764 0 280.217 125.458 280.217 280.217s-125.453 280.217-280.217 280.217z"  horiz-adv-x="1024" />

    
    <glyph glyph-name="ap-qq" unicode="&#58899;" d="M918.557 154.171c-19.116-17.839-51.983 1.612-83.578 45.341-13.706-37.037-31.594-71.143-52.324-101.796 44.66-15.967 73.354-40.828 73.354-68.931 0-48.492-85.789-87.751-191.716-87.751-62.879 0-118.396 13.756-153.482 35.127-34.737-21.371-90.603-35.127-153.44-35.127-105.928 0-191.758 39.258-191.758 87.751 0 27.762 28.742 52.964 73.402 68.931-21.037 30.614-38.576 64.76-52.323 101.796-31.593-43.381-64.42-63.18-83.579-45.341-26.182 24.562-16.267 111.38 22.651 193.67 8.945 18.819 18.478 35.724 28.354 50.411 5.452 239.295 163.064 431.369 356.392 431.369h0.641c193.338 0 350.951-191.758 356.353-431.369 9.884-14.688 19.498-31.584 28.401-50.411 38.619-82.29 48.834-169.107 22.652-193.67v0 0zM918.557 154.171z"  horiz-adv-x="1024" />

    
    <glyph glyph-name="ap-cancel" unicode="&#58900;" d="M204.293 813.994c17.15 0 34.3-6.546 47.308-19.636l220.962-220.962c13.090-13.090 30.24-19.553 47.391-19.553 17.068 0 34.218 6.546 47.308 19.636l205.221 205.138c13.008 13.008 28.75 19.636 47.308 19.636s34.218-6.546 47.308-19.636l47.391-47.308c13.008-13.090 19.553-28.832 19.553-47.391 0-18.476-6.546-34.3-19.553-47.308l-205.305-205.221c-26.098-26.098-26.098-68.518 0-94.699l205.305-205.221c13.008-13.090 19.553-28.914 19.553-47.308 0-18.558-6.546-34.3-19.553-47.308l-47.391-47.391c-13.090-13.008-28.832-19.553-47.308-19.553s-34.3 6.546-47.308 19.553l-205.221 205.221c-13.090 13.090-30.24 19.636-47.308 19.636-17.15 0-34.3-6.546-47.391-19.636l-220.962-220.962c-13.090-13.090-28.832-19.553-47.391-19.553-18.476 0-34.3 6.463-47.308 19.553l-47.391 47.391c-13.090 13.008-19.636 28.832-19.636 47.308s6.546 34.218 19.636 47.308l220.962 220.962c26.18 26.18 26.18 68.601 0 94.699l-220.962 220.962c-26.098 26.098-26.098 68.518 0 94.699l47.391 47.308c13.090 13.090 30.24 19.636 47.391 19.636M204.293 844.732c-26.098 0-50.622-10.191-69.098-28.583l-47.391-47.391c-38.028-38.112-38.028-100.083 0-138.113l220.962-220.962c14.167-14.167 14.167-37.117 0-51.284l-220.962-221.044c-18.724-18.724-28.667-42.585-28.667-69.014 0-26.511 9.942-50.455 28.667-69.098l47.308-47.308c18.724-18.807 42.585-28.667 69.014-28.667 26.511 0 50.373 9.86 69.098 28.667l220.962 220.962c6.877 6.877 15.989 10.605 25.684 10.605 9.611 0 18.807-3.728 25.6-10.605l205.221-205.221c18.641-18.724 42.502-28.583 69.014-28.583 26.347 0 50.208 9.776 69.014 28.501l47.391 47.391c18.807 18.807 28.667 42.668 28.667 69.098s-9.86 50.291-28.667 69.014l-205.221 205.221c-14.167 14.167-14.167 37.117 0 51.284l205.221 205.138c18.807 18.724 28.667 42.585 28.667 69.014 0 26.511-9.86 50.373-28.667 69.098l-47.308 47.308c-18.724 18.807-42.585 28.75-69.014 28.75-26.511 0-50.373-9.942-69.098-28.667l-205.138-205.055c-6.877-6.877-15.989-10.687-25.6-10.687-9.693 0-18.891 3.728-25.684 10.605l-220.962 220.962c-18.476 18.476-42.916 28.667-69.014 28.667v0z"  horiz-adv-x="1024" />

    
    <glyph glyph-name="iconfonticon" unicode="&#58928;" d="M520.124484 125.049447 369.257878 125.049447c-9.258965 0-16.763524-8.259516-16.763524-18.449391l0-9.282494c0-10.177598 7.504559-18.437115 16.763524-18.437115l150.866605 0c9.252827 0 16.762501 8.251333 16.762501 18.437115l0 9.282494C536.885962 116.788907 529.376288 125.049447 520.124484 125.049447zM685.317882 290.539508 370.008743 290.539508c-9.670202 0-17.518482-8.223712-17.518482-18.365506l0-9.146438c0-10.145886 7.84828-18.37369 17.518482-18.37369l315.309139 0c9.670202 0 17.518482 8.235988 17.518482 18.37369l0 9.146438C702.844547 282.315796 694.988084 290.539508 685.317882 290.539508zM685.317882 465.520751 370.008743 465.520751c-9.670202 0-17.518482-8.255425-17.518482-18.441207l0-9.283516c0-10.177598 7.84828-18.437115 17.518482-18.437115l315.309139 0c9.670202 0 17.518482 8.251333 17.518482 18.437115l0 9.283516C702.844547 457.257143 694.988084 465.520751 685.317882 465.520751zM737.58587-24.799297 722.642222-17.09628 729.022529-32.60768ZM842.151512 677.017159 215.224136 677.017159C194.84848 677.017159 178.344791 659.92219 178.344791 638.831473l0-760.866781c0-21.082533 16.503688-38.189778 36.879345-38.189778l446.269634 0c6.796659 1.418869 18.824823 5.566018 31.488256 17.849926l167.453155 167.931908c0 0 14.533435 14.00967 18.604883 37.322294L879.040064 638.831473C879.03188 659.92219 862.516939 677.017159 842.151512 677.017159zM720.666853-61.885283c-1.129367-2.430593-3.057678-4.885738-5.783912-7.372595-3.968128-3.617247-7.850326-5.479065-11.650685-5.583409-3.798314-0.10639-7.504559 1.409662-11.120783 4.543041l5.620236 6.2197c2.25771-1.729854 4.395732-2.56358 6.416112-2.499133 2.019357 0.063425 3.991656 0.973874 5.918945 2.731349 2.040839 1.859772 3.184527 3.69397 3.432088 5.500547s-0.155493 3.288871-1.211205 4.444835c-0.675165 0.742681-1.470018 1.175401-2.379445 1.300204-0.911473 0.12378-2.083804-0.115596-3.519041-0.719153-0.97592-0.419421-3.084276-1.504799-6.323021-3.257159-4.165562-2.253618-7.492284-3.392192-9.98221-3.414697-3.500627-0.029666-6.383377 1.196883-8.647225 3.680671-1.457742 1.598913-2.367169 3.506765-2.731349 5.724579-0.361111 2.217814-0.021483 4.468364 1.020931 6.751648 1.041391 2.283285 2.769199 4.524627 5.180356 6.723005 3.938462 3.591672 7.691764 5.430985 11.256839 5.519984 3.564052 0.087976 6.713798-1.2644 9.441055-4.056104l-6.082621-6.056024c-1.741107 1.366697-3.380939 1.994805-4.916428 1.887393-1.536511-0.10639-3.196803-0.971828-4.980875-2.598362-1.840336-1.679728-2.93799-3.371732-3.289894-5.079081-0.229147-1.096631 0.02762-2.052092 0.770302-2.865359 0.675165-0.741658 1.569247-1.090494 2.679177-1.046505 1.410685 0.05831 3.988587 1.129367 7.736775 3.212148 3.746142 2.082781 6.712775 3.407536 8.898877 3.979381 2.186102 0.567752 4.310825 0.558545 6.376216-0.029666 2.063345-0.586166 4.000863-1.872048 5.809487-3.856623 1.640855-1.798394 2.675085-3.938462 3.107804-6.419181C722.148124-57.000567 721.798266-59.456735 720.666853-61.885283zM753.681391-32.864448l-9.240551 4.629994-12.54579-11.438929 3.908795-9.490158-6.721982-6.128655-16.390138 42.53027 6.701522 6.110242 41.181986-19.927592L753.681391-32.864448zM764.106549-23.358945l-28.381475 31.129191 6.337343 5.775728 23.559161-25.839377 15.756915 14.366689 4.821291-5.288791L764.106549-23.358945zM790.717251 0.904024l-28.614713 31.385958 23.270681 21.216543 4.840727-5.309251-16.935385-15.439792 6.343481-6.95829 15.756915 14.366689 4.821291-5.288791-15.756915-14.365666 7.787924-8.541858 17.534849 15.986062 4.821291-5.288791L790.717251 0.904024zM832.794342 31.294625c-0.026597 0.471592-0.092068 0.930909-0.136056 1.390226l0.136056 0.140148L832.794342 31.294625zM832.794342 69.768791 689.609271 69.768791c-32.879504 0-40.994781-9.881958-40.994781-41.262801l0-94.58957-0.017391-0.02046 0-48.235413L244.861826-114.339453c-11.200575 0-20.271313 9.395021-20.271313 20.954661L224.590513 610.156404c0 11.588284 9.070737 20.962845 20.271313 20.962845l567.662226 0c11.199552 0 20.27029-9.374561 20.27029-20.962845L832.794342 69.768791z"  horiz-adv-x="1024" />

    
    <glyph glyph-name="ap-send" unicode="&#58901;" d="M973.491 769.434c-1.562 2.662-7.68 11.622-21.888 15.258-18.099 4.557-41.498-1.69-68.506-18.15l-804.659-425.754c-6.912-3.174-29.389-15.104-28.902-36.326 0.358-14.182 10.342-25.293 30.848-33.485l254.387-84.096 37.99-15.59 414.874 408.73-322.304-446.694 52.378-21.478 255.59-84.813c3.738-1.741 11.802-4.89 21.581-4.89 6.118 0 12.902 1.229 19.738 4.762 17.101 8.858 27.392 28.544 30.362 56.909l130.714 672.358c0.896 4.531 0.128 9.242-2.202 13.261zM484.403-75.725c-2.765-0.358-5.658 0-8.346 1.101-6.272 2.56-10.368 8.653-10.342 15.411l-0.077 127.59c0 5.12 2.33 9.933 6.374 13.107 4.045 3.149 9.293 4.275 14.259 3.046l100.736-24.909c5.811-1.434 10.394-5.862 12.006-11.597 1.638-5.76 0.077-11.93-4.122-16.205l-100.659-102.682c-2.688-2.765-6.195-4.429-9.83-4.864z"  horiz-adv-x="1024" />

    
    <glyph glyph-name="ap-lock" unicode="&#58903;" d="M780.994 476.672h-404.073v149.686c0 49.581 60.319 104.746 134.66 104.746 74.369 0 134.754-55.165 134.754-104.746v-36.79c0-0.215 0-0.436 0-0.646 0-0.2 0-0.419 0-0.651v-6.841h0.53c3.58-25.388 25.419-44.894 51.773-44.894 26.446 0 48.22 19.506 51.867 44.894h0.596v44.926c0 115.713-107.28 209.525-239.518 209.525-132.21 0-239.458-93.813-239.458-209.525v-149.686h-29.96c-49.55 0-89.749-40.206-89.749-89.788v-359.218c0-49.583 40.2-89.774 89.749-89.774h538.831c49.617 0 89.782 40.19 89.782 89.774l-0 359.219c-0.002 49.582-40.167 89.788-89.784 89.788zM556.518 145.148v-40.933c0-25.717-20.118-46.55-44.936-46.55-24.758 0-44.911 20.833-44.911 46.55v40.933c-35.361 16.57-59.888 52.175-59.888 93.43 0 57.117 46.963 103.434 104.799 103.434 57.897 0 104.793-46.317 104.793-103.434-0-41.255-24.461-76.86-59.856-93.43z"  horiz-adv-x="1024" />

    
    <glyph glyph-name="ap-dictionary2" unicode="&#58904;" d="M888.225 31.999v0 48.594h-24.273v-72.818h24.273v-72.818h-96.848c-0.073 0-0.17 0-0.243 0h-558.27c-53.618 0-97.090 43.472-97.090 97.042v12.185c0 0 0 0 0 0.049v691.721c0 53.618 43.472 97.090 97.090 97.090h655.36v-801.044zM694.045 663.135h-339.817c-13.398 0-24.273-10.898-24.273-24.273 0-13.423 10.874-24.321 24.273-24.321h339.817c13.423 0 24.273 10.898 24.273 24.321 0 13.374-10.85 24.273-24.273 24.273zM694.045 541.772h-339.817c-13.398 0-24.273-10.898-24.273-24.273 0-13.423 10.874-24.321 24.273-24.321h339.817c13.423 0 24.273 10.898 24.273 24.321 0 13.374-10.85 24.273-24.273 24.273zM232.865 80.593v-2.476c-14.078-5.024-24.273-18.108-24.273-33.933 0-15.777 10.194-28.909 24.273-33.933v-2.476h582.542v72.818h-582.542z"  horiz-adv-x="1024" />

    
    <glyph glyph-name="ap-triangle-right" unicode="&#58905;" d="M336.75 721.887l-0.004-0.002c-6.638 5.428-15.12 8.688-24.364 8.688-21.271 0-38.516-17.244-38.52-38.514l-0.166-0.078 0.171-659.888c0.081-21.204 17.292-38.37 38.515-38.37 10.089 0 19.268 3.883 26.136 10.23l385.962 328.345c9.223 7.038 15.18 18.139 15.18 30.636 0 12.134-5.617 22.951-14.385 30.012v0.010l-388.201 328.655c-0.084 0.070-0.166 0.142-0.25 0.212l-0.074 0.063z"  horiz-adv-x="1024" />

    
    <glyph glyph-name="ap-homepage" unicode="&#58906;" d="M511.981 892.678l-1.132 1.019-508.524-463.611 62.109-56.559 447.547 408.033 447.564-408.033 61.997 56.559-508.541 463.611zM641.086-50.803v231.583c0 80.224-57.915 145.491-129.105 145.491-71.209 0-129.142-65.267-129.142-145.491v-231.583h-264.037v347.958l386.465 360.604 399.857-360.609v-347.954h-264.037zM505.274 656.971l399.268-360.079v-347.114h-262.874v231.002c0 80.545-58.178 146.074-129.687 146.074-71.531 0-129.725-65.529-129.725-146.074v-231.001h-262.874v347.124l385.891 360.068M505.261 658.551l-387.041-361.141v-348.795h265.201v232.164c0 80.158 57.561 144.91 128.56 144.91 70.907 0 128.524-64.752 128.524-144.91v-232.164h265.202v348.795l-400.446 361.141z"  horiz-adv-x="1024" />

    
    <glyph glyph-name="ap-message" unicode="&#58953;" d="M510.779 50.179c-28.579 0-56.44 2.584-83.527 7.072l-195.783-118.802v197.777c-102.074 71.665-167.586 181.56-167.586 304.987 0 215.96 200.084 391.029 446.896 391.029 246.815 0 446.896-175.069 446.896-391.029 0.001-215.966-200.081-391.035-446.896-391.035zM510.779 776.381c-215.963 0-391.035-150.063-391.035-335.167 0-113.579 66.074-213.781 166.893-274.401l-1.762-129.556 131.486 79.031c30.291-6.452 61.801-10.25 94.418-10.25 215.966 0 391.035 150.060 391.035 335.176-0 185.105-175.069 335.167-391.035 335.167zM734.227 385.352c-30.85 0-55.862 25.007-55.862 55.862 0 30.85 25.013 55.856 55.862 55.856 30.853 0 55.862-25.007 55.862-55.856 0-30.856-25.010-55.862-55.862-55.862zM510.779 385.352c-30.853 0-55.862 25.007-55.862 55.862 0 30.85 25.010 55.856 55.862 55.856 30.853 0 55.862-25.007 55.862-55.856 0-30.856-25.010-55.862-55.862-55.862zM287.331 385.352c-30.85 0-55.859 25.007-55.859 55.862 0 30.85 25.010 55.856 55.859 55.856 30.853 0 55.862-25.007 55.862-55.856 0-30.856-25.010-55.862-55.862-55.862z"  horiz-adv-x="1024" />

    
    <glyph glyph-name="ap-position" unicode="&#58908;" d="M511.998 831.953c-197.642 0-358.442-157.924-358.442-351.994 0-187.32 321.199-519.968 334.847-534.016 6.149-6.348 14.699-9.897 23.594-9.897h0.726c9.149 0 17.798 4.2 23.798 10.948l111.23 125.080c147.778 177.77 222.689 314.998 222.689 407.885 0 194.071-160.797 351.995-358.443 351.995v0zM511.998 319.985c-90.008 0-162.923 71.589-162.923 159.974 0 88.386 72.914 160.025 162.923 160.025 90.011 0 162.926-71.639 162.926-160.025 0-88.385-72.915-159.974-162.926-159.974v0zM511.998 319.985z"  horiz-adv-x="1024" />

    
    <glyph glyph-name="ap-triangle-down" unicode="&#58910;" d="M523.955 63.827l323.744 512c6.24 9.856 6.624 22.336 0.992 32.512-5.632 10.24-16.384 16.576-28.033 16.576h-647.328c-11.647 0-22.4-6.336-28.033-16.576-2.656-4.8-3.968-10.112-3.968-15.424 0-5.952 1.664-11.904 4.929-17.088l323.616-512c5.856-9.28 16.064-14.911 27.040-14.912s21.184 5.632 27.040 14.912z"  horiz-adv-x="1024" />

    
    <glyph glyph-name="ap-navsetting" unicode="&#58911;" d="M991.5094690792198 482.71418744937955l-120.43873531480813 22.57711127378316c-7.31839097601335 24.355505258398015-16.912227064363954 47.719406005711626-28.78150826505182 69.69955637735582l69.6795744224725 101.87050373948956c6.451673682949654 9.428984960563271 5.1278691719301746 23.611177438994606-2.9573293227303097 31.676393978771777l-85.90991727644342 85.92989923132673c-8.085198494660483 8.085198494660483-22.2474090182085 9.386523306436237-31.676393978771777 2.9573293227303097l-101.8929834387333-69.71953833223913c-22.619572927910202 12.198983456262528-46.70781953974391 21.977652627283778-71.80765261754532 29.360984956667895l-22.454721800122876 119.79681501418167c-2.130575939433238 11.227360900061438-13.068198493686637 20.32414586068964-24.500374431302028 20.32414586068964L449.2566616663975 897.1873888721369c-11.43467368197581 0-22.372296236229207-9.096784960628199-24.500374431302028-20.32414586068964l-22.682016536920553-120.97575035229713c-24.088246611833704-7.36085263014039-47.18239096822259-16.954688718490996-68.9352466030691-28.78150826505182l-100.60914283748045 68.8303413399317c-9.428984960563271 6.451673682949654-23.611177438994606 5.1278691719301746-31.676393978771777-2.9573293227303097l-85.92989923132673-85.92989923132673c-8.085198494660483-8.085198494660483-9.386523306436237-22.2474090182085-2.9573293227303097-31.676393978771777l69.26494885864375-101.23108118322358c-11.661968418773489-21.750357890486097-21.110935334220073-44.82701803635207-28.346900746339763-68.87280299405873l-120.41875335992476-22.557129318899854c-11.207378945178124-2.130575939433238-20.304163905806316-13.068198493686637-20.304163905806316-24.500374431302028l0-121.51276538978617c0-11.43467368197581 9.096784960628199-22.372296236229207 20.304163905806316-24.500374431302028l120.3338300516707-22.557129318899854c7.340870675257077-24.562818040312376 17.01713232750135-48.13403156954037 28.96634134772246-70.27903306897188L113.29256098017646 119.24742361063875c-6.451673682949654-9.428984960563271-5.1278691719301746-23.611177438994606 2.9573293227303097-31.676393978771777l85.90991727644342-85.92989923132673c8.085198494660483-8.085198494660483 22.2474090182085-9.386523306436237 31.676393978771777-2.9573293227303097l100.07212779999142 68.50063908435705c21.52306315368841-11.639488719529766 44.3699308183963-21.110935334220073 68.210900738549-28.429326310233424l22.682016536920553-120.99573230718045c2.130575939433238-11.207378945178124 13.068198493686637-20.304163905806316 24.500374431302028-20.304163905806316l121.51276538978617 0c11.43467368197581 0 22.372296236229207 9.096784960628199 24.500374431302028 20.304163905806316l22.454721800122876 119.83927666830871c24.832574431237113 7.31839097601335 48.6710466070294 16.974670673374312 71.08330675302523 28.96634134772246l101.35347065688387-69.34737442253743c9.428984960563271-6.451673682949654 23.611177438994606-5.1278691719301746 31.676393978771777 2.9573293227303097l85.90991727644342 85.88743757719969c8.085198494660483 8.085198494660483 9.386523306436237 22.2474090182085 2.9573293227303097 31.676393978771777l-68.95522855795242 100.77649170962822c12.179001501379215 22.412260145995837 21.977652627283778 46.25323006614854 29.42093082131784 71.12576840715226l120.31384809678738 22.557129318899854c11.207378945178124 2.130575939433238 20.304163905806316 13.068198493686637 20.304163905806316 24.500374431302028l0 121.51276538978617C1011.8336149399097 469.64598895569304 1002.7168480243984 480.5836115099464 991.5094690792198 482.71418744937955zM511.9900090225584 188.80211081509037c-115.12353531584687 0-208.4767307863243 93.35319547047746-208.4767307863243 208.53917439533467 0 115.10355336096356 93.35319547047746 208.4767307863243 208.4767307863243 208.4767307863243 115.1659969699739 0 208.53917439533467-93.37317742536078 208.53917439533467-208.4767307863243C720.529183417893 282.15530628556803 627.136024037649 188.80211081509037 511.9900090225584 188.80211081509037z"  horiz-adv-x="1024" />

    
    <glyph glyph-name="ap-bind" unicode="&#58912;" d="M956.096 657.408l-167.488 168.768c-38.4 38.656-100.864 38.912-139.52 0.512l-168.832-167.424c-38.656-38.4-38.912-100.864-0.512-139.52l32.768-33.024 51.456 51.072-4.864 4.864c-25.6 25.792-25.408 67.456 0.384 92.992l112.512 111.68c25.792 25.6 67.456 25.408 92.992-0.384l111.68-112.512c25.6-25.792 25.408-67.456-0.384-92.992l-112.512-111.68c-25.792-25.6-67.456-25.408-92.992 0.384l-4.864 4.928-51.456-51.136 32.768-33.024c38.4-38.656 100.864-38.912 139.52-0.576l168.768 167.488c38.72 38.4 38.976 100.928 0.576 139.584zM544.256 248.768l-32.576 32.832-51.456-51.072 4.672-4.672c25.6-25.792 25.408-67.456-0.384-92.992l-112.512-111.68c-25.792-25.6-67.456-25.408-92.992 0.384l-111.68 112.512c-25.6 25.792-25.408 67.456 0.384 92.992l112.512 111.68c25.792 25.6 67.456 25.408 92.992-0.384l4.672-4.672 51.456 51.072-32.576 32.832c-38.4 38.656-100.864 38.912-139.52 0.576l-168.768-167.552c-38.656-38.4-38.912-100.864-0.512-139.52l167.488-168.768c38.4-38.656 100.864-38.912 139.52-0.512l168.768 167.488c38.656 38.336 38.912 100.8 0.512 139.456zM408.512 230.912c-14.272-14.144-37.248-14.016-51.392 0.192v0c-14.144 14.208-14.080 37.248 0.192 51.328l258.112 256.064c14.272 14.144 37.248 14.016 51.392-0.192v0c14.144-14.272 14.016-37.248-0.192-51.392l-258.112-256z"  horiz-adv-x="1024" />

    
    <glyph glyph-name="ap-head" unicode="&#58914;" d="M512 896c-282.795 0-512-229.239-512-512s229.239-512 512-512c282.761 0 512 229.239 512 512s-229.274 512-512 512zM776.124 22.699c-54.989 4.983-156.535 27.58-157.457 126.635-0.341 29.321-13.278 49.015 0 64 15.667 17.783 35.396 65.741 42.667 106.667 2.867 16.282 42.052 21.811 42.667 64 19.319 21.026-0.137 59.017 0 85.333 0.273 65.297 7.27 127.693-21.333 170.667-84.651 127.181-253.884 125.986-341.333 0-26.795-38.605-21.504-105.097-21.333-170.667 0.068-26.897-22.733-62.976 0-85.333 0-42.394 37.342-40.823 42.667-64 9.557-41.54 21.299-85.402 42.667-106.667 20.89-20.787 0.273-34.679 0-64-0.956-99.055-102.502-121.617-157.457-126.635-111.309 81.51-183.876 212.753-183.876 361.301 0 247.433 200.533 448 448 448 247.433 0 448-200.567 448-448 0-148.548-72.602-279.791-183.876-361.301z"  horiz-adv-x="1024" />

    
    <glyph glyph-name="ap-logout" unicode="&#58916;" d="M512-93.403c-263.645 0-477.403 213.757-477.403 477.403 0 200.091 123.767 370.047 298.377 440.941v-115.114c-106.521-63.435-179.026-179.981-179.026-315.743 0-203.314 160.288-368.197 358.052-368.197s358.052 164.823 358.052 368.197c0 135.762-72.506 252.307-179.026 315.743v115.115c174.61-70.895 298.377-240.85 298.377-440.941-0.001-263.646-213.758-477.405-477.403-477.405zM512 861.403c32.941 0 59.675-26.675 59.675-59.675v-358.052c0-32.941-26.735-59.675-59.675-59.675s-59.675 26.735-59.675 59.675v358.051c-0.001 33.002 26.734 59.676 59.675 59.676z"  horiz-adv-x="1024" />

    
    <glyph glyph-name="ap-add" unicode="&#58917;" d="M926.253 301.149h-331.402v-331.402c0-45.733-37.117-82.851-82.851-82.851-45.817 0-82.851 37.117-82.851 82.851v331.402h-331.402c-45.817 0-82.851 37.117-82.851 82.851s37.034 82.851 82.851 82.851h331.402v331.402c0 45.733 37.034 82.851 82.851 82.851 45.733 0 82.851-37.117 82.851-82.851v-331.402h331.402c45.733 0 82.851-37.117 82.851-82.851s-37.117-82.851-82.851-82.851z"  horiz-adv-x="1024" />

    
    <glyph glyph-name="ap-back" unicode="&#58918;" d="M94.933 564.028l330.243-329.439 0 199.592c99.963 0 354.698-2.312 354.698-273.862 0-142.239-97.286-260.862-226.595-288.299 207.767 29.212 368.432 211.954 368.432 435.435 0 415.131-427.662 418.614-496.535 418.614l0.001 169.912-330.244-331.953z"  horiz-adv-x="1024" />

    
    <glyph glyph-name="ap-resetinfo" unicode="&#58919;" d="M512.001 662.127v84.319l-151.998-134.302 151.998-134.303v90.711c111.645 0 202.153-90.506 202.153-202.153s-90.508-202.154-202.153-202.154c-111.647 0-202.153 90.507-202.153 202.154 0 26.831 5.239 52.435 14.732 75.862l-88.034 31.944c-13.083-33.404-20.273-69.764-20.273-107.805 0-163.326 132.401-295.728 295.727-295.728 163.327 0 295.729 132.403 295.729 295.728-0.001 163.325-132.404 295.727-295.728 295.727zM448.865 360.948c0-33.28 26.979-60.259 60.259-60.259 33.28 0 60.259 26.979 60.259 60.259 0 33.28-26.979 60.259-60.259 60.259-33.28 0-60.259-26.979-60.259-60.259z"  horiz-adv-x="1024" />

    
    <glyph glyph-name="ap-newmsg" unicode="&#58920;" d="M1439.479 499.674c-15.17 34.133-35.84 63.716-61.819 88.936-25.979 25.221-56.32 45.132-90.833 59.733-34.513 14.601-71.49 21.618-110.744 21.239-39.443-0.379-76.231-8.154-110.554-23.135-34.323-14.981-64.284-35.271-89.884-61.25-25.6-25.979-45.701-56.13-60.302-90.643-14.601-34.513-21.618-71.301-21.239-110.554 0.759-36.978 8.154-71.49 21.807-103.538 13.843-32.047 31.479-59.923 53.096-84.006 7.206-7.964 11.378-16.308 12.705-25.031 1.327-8.533-2.276-15.17-10.809-19.911-15.17-8.913-34.892-15.17-58.975-18.963-3.793-0.759 5.12-4.741 26.738-11.757 21.618-7.016 54.803-12.705 99.745-17.446 20.29-1.707 38.495-2.655 54.613-3.224 16.119-0.379 30.72-0.379 44.184 0 13.274 0.379 25.41 1.138 36.219 1.896 10.809 0.759 21.049 1.896 30.72 3.224 36.409 3.793 70.542 13.843 102.21 29.961 31.668 16.119 59.164 36.978 82.489 62.199 23.324 25.221 41.529 54.234 54.993 86.85 13.274 32.616 19.721 67.698 19.342 105.055-0.569 39.633-8.533 76.231-23.704 110.364zM1022.293 339.058c-25.41 0-45.89 20.48-45.89 45.89s20.48 45.89 45.89 45.89c25.41 0 45.89-20.48 45.89-45.89 0.19-25.221-20.48-45.89-45.89-45.89zM1178.548 339.058c-25.41 0-45.89 20.48-45.89 45.89s20.48 45.89 45.89 45.89c25.41 0 45.89-20.48 45.89-45.89 0-25.221-20.48-45.89-45.89-45.89zM1334.803 339.058c-25.41 0-45.89 20.48-45.89 45.89s20.48 45.89 45.89 45.89c25.41 0 45.89-20.48 45.89-45.89-0-25.221-20.48-45.89-45.89-45.89z"  horiz-adv-x="2356" />

    
    <glyph glyph-name="ap-saveasdraft" unicode="&#58921;" d="M128.71 823.467v-878.933h766.579v878.933h-766.579zM809.956 29.867h-595.913v587.671h595.913v-587.671zM718.959 146.801h-413.918v64h413.916v-64zM718.889 286.357h-413.845v64h413.845v-64zM718.889 425.734h-413.845v64h413.845v-64z"  horiz-adv-x="1024" />

    
    <glyph glyph-name="ap-resetpassword" unicode="&#58923;" d="M636.173 448.070c37.402 0 67.701-33.051 67.701-73.844v-172.261c0-40.762-30.299-73.812-67.701-73.812h-248.217c-37.37 0-67.701 33.051-67.701 73.812v172.261c0 40.762 30.299 73.844 67.701 73.844h248.217zM511.52 383.76c-35.322 0-63.99-27.388-63.99-61.206 0-22.588 17.533-39.866 36.602-50.487v-79.54h54.807v79.54c19.069 10.622 36.602 27.9 36.602 50.489-0.032 33.819-28.7 61.206-64.022 61.206zM512 575.89c-60.151 0-63.83-50.585-63.99-63.99v-63.798h-64.406v57.623c0 0 0.032 134.379 128.14 134.379 128.14 0 128.14-134.379 128.14-134.379v-57.623h-63.894v63.798c-0.128 13.182-3.839 63.99-63.99 63.99zM512-128c-282.74 0-511.92 229.18-511.92 511.92s229.18 511.92 511.92 511.92c91.122 0 176.612-23.964 250.713-65.718l47.609 65.878 85.235-224.061-223.453 32.795 52.759 73.013c-63.35 34.331-135.755 54.073-212.863 54.073-247.385 0-447.93-200.545-447.93-447.93s200.545-447.93 447.93-447.93 447.93 200.545 447.93 447.93c0 60.407-12.126 117.934-33.787 170.533l59.159 24.348c24.764-60.087 38.618-125.836 38.618-194.882 0-282.708-229.18-511.888-511.92-511.888z"  horiz-adv-x="1024" />

    
    <glyph glyph-name="ap-finish" unicode="&#58924;" d="M294.659 419.852l134.083-250.815c0 0 217.846 509.728 561.318 679.646-8.402-121.363-41.906-226.54 16.754-355.995-150.782-32.372-460.798-396.46-561.377-574.47-142.377 169.917-309.967 299.379-427.241 339.837l276.463 161.798z"  horiz-adv-x="1024" />

    
    <glyph glyph-name="ap-demo" unicode="&#58925;" d="M691.2 473.6c30.4 0 54.4-24 54.4-54.4s-24-54.4-54.4-54.4c-30.4 0-54.4 24-54.4 54.4s24 54.4 54.4 54.4zM332.8 473.6c28.8 0 52.8-24 52.8-54.4s-24-54.4-52.8-54.4c-28.8 0-52.8 24-52.8 54.4s24 54.4 52.8 54.4zM798.4 620.8c32 0 56-25.6 56-56v-358.4c0-32-25.6-56-56-56l-572.8-0c-32 0-56 25.6-56 56v356.8c0 32 25.6 56 56 56h572.8M798.4 652.8h-572.8c-49.6 0-88-40-88-88v-358.4c0-49.6 40-88 88-88h574.4c49.6 0 88 40 88 88v356.8c0 49.6-40 89.6-89.6 89.6v0zM838.4 710.4c57.6 0 105.6-48 105.6-105.6v-440c0-57.6-48-105.6-105.6-105.6l-652.8 0c-57.6 0-105.6 48-105.6 105.6v438.4c0 57.6 48 105.6 105.6 105.6h652.8M838.4 742.4h-652.8c-76.8 0-137.6-62.4-137.6-137.6v-440c0-76.8 62.4-137.6 137.6-137.6h654.4c76.8 0 137.6 62.4 137.6 137.6v438.4c0 76.8-62.4 139.2-139.2 139.2v0zM764.8 27.2c0-3.2 1.6-6.4 1.6-9.6 0-36.8-30.4-67.2-65.6-67.2s-65.6 30.4-65.6 67.2c0 3.2 0 6.4 1.6 9.6h-32c0-3.2 0-6.4 0-9.6 0-54.4 44.8-99.2 97.6-99.2s97.6 44.8 97.6 99.2c0 3.2 0 6.4 0 9.6h-35.2zM390.4 27.2c0-3.2 1.6-6.4 1.6-9.6 0-36.8-30.4-67.2-67.2-67.2s-67.2 30.4-67.2 67.2c0 3.2 0 6.4 1.6 9.6h-32c0-3.2 0-6.4 0-9.6 0-54.4 44.8-99.2 99.2-99.2 54.4 0 99.2 44.8 99.2 99.2 0 3.2 0 6.4 0 9.6h-35.2zM176 820.8l126.4-80h56l-168 105.6c-6.4 4.8-16 1.6-20.8-4.8-3.2-6.4-1.6-16 6.4-20.8zM721.6 742.4l131.2 80c6.4 4.8 9.6 12.8 4.8 20.8-4.8 6.4-12.8 9.6-20.8 4.8l-172.8-105.6h57.6z"  horiz-adv-x="1024" />

    
    <glyph glyph-name="ap-delete" unicode="&#58926;" d="M805.222 625.339l1.3-633.32c0-33.223-13.718-50.972-47.071-50.972l-483.718 1.3c-33.353 0-47.982 15.149-47.982 48.372v634.62h-74.963v-634.88c0-66.576 54.223-120.734 120.799-120.734h483.003c66.576 0 120.799 54.158 120.799 120.734v634.88h-72.168zM805.222 625.339zM328.85 489.456v-449.585c0-2.926 0.39-5.721 1.17-8.452 22.105 0 44.276 0.065 66.381 0.13 0.715 2.666 1.105 5.461 1.105 8.322v449.39c-22.886 0.065-45.771 0.13-68.657 0.195v0zM328.85 489.456zM632.019 487.83v-447.959c0-2.341 0.26-4.616 0.78-6.827 22.365 0.13 44.731 0.195 67.096 0.195 0.455 2.146 0.715 4.356 0.715 6.632v447.764c-22.886 0.065-45.771 0.13-68.592 0.195v0zM632.019 487.83zM937.789 747.049h-203.045v75.678c1.235 60.92-48.957 75.613-99.019 75.613h-241.079c-62.22 0-97.719-23.406-97.719-73.533l-0.26-77.759h-207.336v-73.923h848.457v73.923zM666.088 747.049h-301.934v52.923c0 16.774 11.833 31.403 28.607 31.403l241.534-1.3c16.774 0 31.533-12.028 31.533-28.802l0.26-54.223zM666.088 747.049zM482.808 487.765v-447.959c0-2.341 0.26-4.616 0.78-6.827 22.17 0.13 44.341 0.195 66.511 0.195 0.455 2.146 0.715 4.356 0.715 6.632v447.764c-22.626 0.065-45.316 0.13-68.007 0.195v0zM482.808 487.765z"  horiz-adv-x="1024" />

    
    <glyph glyph-name="ap-start" unicode="&#59003;" d="M172.8 896l691.2-512-691.2-512v1024z"  horiz-adv-x="1024" />

    
    <glyph glyph-name="ap-role2" unicode="&#58886;" d="M507.343 871.619c18.798 0 37.498-2.097 55.979-6.315 18.481-4.218 35.84-9.899 52.053-17.042 16.238-7.144 30.671-15.238 43.325-24.332 12.654-9.094 22.552-18.164 29.672-27.258 16.872-20.773 29.208-43.642 37.010-68.608 7.778-24.99 13.288-48.835 16.555-71.534 3.243-25.941 4.852-52.248 4.852-78.824 4.559-3.243 8.119-7.461 10.703-12.654 2.584-4.559 4.681-10.386 6.315-17.53 1.634-7.119 1.78-15.896 0.512-26.283-1.317-13.629-4.047-24.503-8.29-32.597-4.218-8.119-8.899-14.434-14.092-18.968-5.851-5.193-12.020-8.753-18.505-10.703-3.243-11.020-6.51-21.406-9.728-31.134-3.243-8.436-6.973-16.701-11.191-24.82-4.218-8.119-8.923-14.434-14.117-18.968-12.312-9.728-22.382-17.993-30.159-24.82s-12.971-18.334-15.579-34.572c-1.95-9.704-2.584-19.627-1.95-29.672 0.658-10.069 3.413-20.114 8.29-30.184 4.852-10.045 12.337-19.627 22.382-28.696 10.045-9.094 24.162-17.213 42.325-24.332 16.213-6.51 33.914-12.337 53.053-17.53s37.79-11.191 55.979-18.018c18.164-6.802 34.206-15.238 48.177-25.283 13.946-10.069 23.869-23.869 29.696-41.374 3.243-10.386 5.656-23.186 7.29-38.424 1.634-15.262 2.462-30.671 2.462-46.226s-1.146-30.159-3.413-43.813c-2.292-13.629-5.681-23.991-10.24-31.134-3.243-4.535-12.483-9.070-27.746-13.629-15.238-4.559-34.036-8.923-56.442-13.141-22.382-4.218-47.348-7.948-74.923-11.191-27.599-3.243-55.345-5.998-83.212-8.265-27.916-2.292-54.662-4.072-80.311-5.364-25.673-1.365-47.909-1.999-66.731-1.999-18.822 0-40.716 0.634-65.707 1.95-24.966 1.292-50.786 3.072-77.361 5.364-26.6 2.267-53.053 4.852-79.311 7.778-26.283 2.901-50.127 5.998-71.534 9.24-21.406 3.243-39.595 6.485-54.516 9.728-14.921 3.243-24.332 6.485-28.233 9.752-6.485 5.193-11.508 21.065-15.092 47.689-3.56 26.6-2.097 60.977 4.389 103.156 3.243 23.991 12.8 42.325 28.721 54.979 15.896 12.678 34.377 22.723 55.467 30.159 21.090 7.485 42.984 14.117 65.682 19.968 22.723 5.827 42.837 14.263 60.343 25.283 13.629 8.46 24.015 16.555 31.159 24.332 7.119 7.778 12.312 15.579 15.579 23.357 3.243 7.778 4.852 15.896 4.852 24.332s-0.317 17.847-0.975 28.233c-1.292 14.897-6.485 26.77-15.579 35.523-9.094 8.753-19.139 17.676-30.184 26.77-5.193 4.559-9.728 10.874-13.629 18.968-3.901 8.119-7.461 16.384-10.703 24.82-3.243 9.728-6.485 20.114-9.728 31.134-4.559 1.292-9.094 3.56-13.629 6.827-3.901 3.243-8.119 7.778-12.654 13.629-4.535 5.851-8.436 14.263-11.678 25.307-3.901 11.020-5.364 21.090-4.389 30.159s2.755 16.872 5.364 23.357c2.584 7.144 6.802 13.946 12.654 20.431-0.658 24.649 0.634 49.323 3.901 73.972 2.584 20.773 7.29 43.154 14.117 67.145 6.827 24.015 17.042 45.422 30.671 64.244 12.312 18.164 26.112 32.939 41.35 44.276s30.818 20.285 46.714 26.77c15.896 6.485 31.793 10.874 47.714 13.141 15.896 2.341 31.305 3.462 46.226 3.462v0z"  horiz-adv-x="1024" />

    
    <glyph glyph-name="ap-navopen" unicode="&#58929;" d="M865.969 145.124l-709.301 0.002c-18.932 0-34.277-15.337-34.277-34.255 0-18.916 15.344-34.256 34.277-34.256h709.301c18.931 0 34.277 15.34 34.277 34.256 0 18.917-15.345 34.253-34.277 34.253zM865.969 419.498h-709.301c-18.932 0-34.277-15.34-34.277-34.256 0-18.917 15.344-34.254 34.277-34.254h709.301c18.931 0 34.277 15.332 34.277 34.254 0 18.917-15.345 34.256-34.277 34.256zM156.67 625.359h709.301c18.931 0 34.277 15.335 34.277 34.254 0 18.921-15.345 34.255-34.277 34.255h-709.301c-18.932 0-34.277-15.333-34.277-34.254s15.344-34.255 34.277-34.255z"  horiz-adv-x="1024" />

    
    <glyph glyph-name="ap-receive" unicode="&#58974;" d="M109.607843 344.90290200000004l0.997375 0 60.212256 0L170.817473 717.164589c0 21.133402 8.770818 39.953381 22.326603 53.988393C207.140166 785.187994 226.15962 793.963677 247.093547 793.963677l529.489335 0c20.933927 0 39.915675-8.775683 54.268144-22.810695l0.959669-0.717623c12.800456-14.035012 20.891356-32.616594 20.891356-53.270769l0-372.266553 61.366535 0c18.543876 0 33.577479-14.909539 33.577479-33.491121l0-0.722489L947.646066 6.20774700000004c0-18.819979-15.033603-33.81466-33.577479-33.81466l-0.954804 0L109.607843-27.606912999999963c-18.539011 0-33.253941 14.994681-33.253941 33.81466l0 0.954804L76.353902 311.406915C76.353902 329.98849700000005 91.068832 344.90290200000004 109.607843 344.90290200000004L109.607843 344.90290200000004 109.607843 344.90290200000004zM210.970329 344.90290200000004L210.970329 344.90290200000004l95.138624 0c17.545285 0 32.340491-13.56065 33.775738-30.706985 6.617948-40.832774 28.070023-77.274665 58.492392-102.716241 30.427234-26.474223 70.179924-42.263156 113.725071-42.263156 43.259314 0 82.495072 15.788932 113.202057 42.263156 30.664415 26.159199 52.791543 63.004906 58.972835 105.109941 2.869277 16.425063 16.904289 28.313286 33.296511 28.313286l95.181195 0L812.754753 717.164589c0 9.730487-3.867869 18.582798-9.531012 24.644892l-0.960886 1.273478c-6.655653 6.46226-15.75001 10.685291-25.675107 10.685291L247.093547 753.76825c-9.962803 0-19.019454-4.223032-25.437927-10.685291-6.418473-6.380767-10.685291-15.632028-10.685291-25.918369L210.970329 344.90290200000004 210.970329 344.90290200000004 210.970329 344.90290200000004zM322.300484 519.947071L322.300484 519.947071l133.176315-133.419577c12.880733-12.518272 34.21361-12.518272 47.094342 0l0 0L742.336432 626.3317059999999c13.317388 13.317388 13.317388 34.21361 0 47.530998-12.843027 13.080208-34.251315 13.080208-47.056637 0L479.047689 457.825208l-109.216206 109.253912c-12.761534 12.599765-34.21361 13.155619-47.055421 0C309.419752 554.240958 309.220277 532.86551 322.300484 519.947071L322.300484 519.947071 322.300484 519.947071zM279.273485 277.99120600000003"  horiz-adv-x="1024" />

    
    <glyph glyph-name="ap-arrow-right" unicode="&#58881;" d="M261.072-75.665c30.396-31.269 79.721-31.269 110.194 0l391.718 403.211c30.382 31.325 30.382 82.114 0 113.378l-391.718 403.197c-30.466 31.325-79.793 31.325-110.194 0-30.449-31.28-30.449-82.058 0-113.39l336.64-346.497-336.64-346.458c-30.448-31.325-30.448-82.105 0-113.445v0z"  horiz-adv-x="1024" />

    
    <glyph glyph-name="ap-save1" unicode="&#58930;" d="M238.799-16.491h542.459v271.227h-542.459v-271.227zM849.065-16.491h67.807v542.459c0 62.823-132.581 243.419-132.581 243.419-11.846 17.858-27.95 27.808-70.838 27.808v-271.227c0-17.927-5.973-29.879-17.926-41.834-11.953-11.953-37.933-25.973-49.881-25.973h-414.892c-17.932 0-29.879 5.979-41.827 17.927-11.958 11.948-17.933 29.885-17.933 41.834v279.273h-67.807v-813.685h67.807v279.273c0 17.929 5.968 29.881 17.927 41.834 11.948 11.948 23.906 17.933 41.833 17.933h558.553c17.926 0 29.879-5.984 41.833-17.933 11.947-11.958 17.927-23.906 17.927-41.834v-279.273zM645.645 553.213v210.199c0 11.55-2.041 23.906-17.926 23.906h-155.835c-15.918 0-17.927-5.932-17.927-23.906v-210.199c0-12.457 4.681-17.927 17.927-17.927h155.835c14.281 0 17.926 3.87 17.926 17.927v0zM991.542 548.273v-579.681c0-17.925-5.974-29.874-17.922-41.833-11.958-11.948-23.906-17.922-41.833-17.922h-836.654c-17.932 0-29.879 5.973-41.834 17.922-11.953 11.958-17.927 23.907-17.927 41.833v836.654c0 17.922 5.974 29.879 17.927 41.834 11.953 11.953 23.906 17.927 41.834 17.927h647.318c57.465 0 78.779-11.45 101.593-41.839 0 0 147.498-214.848 147.498-274.895v0 0z"  horiz-adv-x="1024" />

    
    <glyph glyph-name="ap-config" unicode="&#58931;" d="M213.9-26h48.7c14.9 0 27 12.1 27 27v280.5h-102.7v-280.5c0-14.9 12.1-27 27-27zM536.4 794h-48.7c-14.9 0-27-12.1-27-27v-417.1h102.7v417.1c-0.1 14.9-12.1 27-27 27zM262.6 794h-48.7c-14.9 0-27-12.1-27-27v-246.3h102.7v246.3c-0.1 14.9-12.1 27-27 27zM810.2 794h-48.7c-14.9 0-27-12.1-27-27v-143.9h102.7v143.9c-0.1 14.9-12.1 27-27 27zM871.3 589h-171.1c-18.9 0-34.2-15.3-34.2-34.2v-102.5c0-18.9 15.3-34.2 34.2-34.2h171.1c18.9 0 34.2 15.3 34.2 34.2v102.5c0.1 18.9-15.3 34.2-34.2 34.2zM761.4-26h48.7c14.9 0 27 12.1 27 27v383h-102.7v-383c0.1-14.9 12.1-27 27-27zM597.6 315.7h-171.2c-18.9 0-34.2-15.3-34.2-34.2v-102.5c0-18.9 15.3-34.2 34.2-34.2h171.1c18.9 0 34.2 15.3 34.2 34.2v102.5c0.1 18.9-15.2 34.2-34.1 34.2zM487.6-26h48.7c14.9 0 27 12.1 27 27l-0 109.7h-102.6v-109.7c0-14.9 12-27 26.9-27zM323.8 486.5h-171.1c-18.9 0-34.2-15.3-34.2-34.2v-102.5c0-18.9 15.3-34.2 34.2-34.2h171.1c18.9 0 34.2 15.3 34.2 34.2l0 102.5c0 18.9-15.3 34.2-34.2 34.2z"  horiz-adv-x="1024" />

    
    <glyph glyph-name="ap-empty" unicode="&#58933;" d="M569.753-90.085c-13.698 0-29.321 2.791-46.253 10.578l-3.463 1.594-455.461 448.148c-1.452 1.89-14.378 19.185-21.095 43.869-9.657 35.483-1.889 68.007 22.464 94.059l0.54 0.557 296.11 295.024 3.059 1.559c2.753 1.403 67.968 33.926 116.065-4.553l1.081-0.863 119.055-122.897 145.345 146.649c1.449 1.296 14.784 12.826 36.732 18.566 20.125 5.263 51.801 6.697 88.423-16.362l2.073-1.306 82.537-82.537c4.7-3.797 16.057-14.369 22.251-32.019 6.585-18.767 8.674-49.49-18.765-89.276l-1.013-1.468-144.242-149.715 112.599-117.881c3.434-3.337 13.876-14.738 19.218-34.487 5.136-18.988 6.378-49.99-16.874-89.849l-1.444-2.477-290.332-288.164c-1.215-1.215-12.953-12.601-32.61-20.097-9.407-3.589-21.647-6.652-36-6.653zM545.045-41.27c37.664-15.346 62.252 8.617 62.503 8.867l286.25 284.112c10.77 19.308 14.78 37.201 11.596 51.883-2.16 9.959-6.912 15.527-7.924 16.624l-0.803 0.665-0.093 0.238-141.879 148.535 170.784 177.262c12.175 18.134 16.692 34.349 13.065 46.969-2.406 8.372-7.674 13.062-8.761 13.962l-1.842 1.172-0.893 1.161-79.947 79.945c-17.436 10.466-34.381 13.919-50.401 10.263-11.115-2.537-18.47-7.822-20.206-9.163l-152.942-154.371-22.736-21.538-147.342 152.096c-22.156 16.595-55.463 4.405-65.264 0.222l-290.617-289.551c-13.66-14.767-17.578-31.948-11.982-52.511 3.735-13.726 10.71-24.571 12.913-27.775l446.524-439.065zM245.515 656.338l541.269-541.269-30.873-30.873-541.269 541.269 30.873 30.873zM257.812 405.281l30.874-30.874-98.623-98.623-30.874 30.874 98.623 98.623zM502.528 164.379l30.873-30.873-98.623-98.623-30.873 30.873 98.623 98.623zM426.839 331.198l30.874-30.874-142.866-142.866-30.874 30.874 142.866 142.866z"  horiz-adv-x="1024" />

    
    <glyph glyph-name="ap-arrowdown" unicode="&#58927;" d="M167.312 289.312l312.5-312.5c24.406-24.406 63.969-24.406 88.376 0l312.5 312.5c24.406 24.406 24.406 63.969 0 88.376-24.406 24.406-63.969 24.406-88.376 0l-205.813-205.813v599.125c0 34.531-27.969 62.5-62.5 62.5s-62.5-27.969-62.5-62.5v-599.125l-205.813 205.813c-12.188 12.188-28.188 18.313-44.188 18.313s-32-6.095-44.188-18.313c-24.406-24.406-24.406-63.969 0-88.376z"  horiz-adv-x="1000" />

    
    <glyph glyph-name="ap-arrowup" unicode="&#59020;" d="M856.688 478.688l-312.5 312.5c-24.406 24.406-63.969 24.406-88.376 0l-312.5-312.5c-24.406-24.406-24.406-63.969 0-88.376 24.406-24.406 63.969-24.406 88.376 0l205.813 205.813v-599.125c0-34.531 27.969-62.5 62.5-62.5s62.5 27.969 62.5 62.5v599.125l205.813-205.813c12.188-12.188 28.188-18.313 44.188-18.313s32 6.095 44.188 18.313c24.406 24.406 24.406 63.969 0 88.376z"  horiz-adv-x="1000" />

    
    <glyph glyph-name="ap-analysis" unicode="&#58935;" d="M893.888 12.556v426.504h-216.377v-426.504h-61.962l-0 608.844h-216.847l0-608.844h-62.515v799.925h-216.3v-799.925h-55.898v-76.517l894.367 0v76.517h-64.468z"  horiz-adv-x="1024" />

    
    <glyph glyph-name="ap-dictionary" unicode="&#58936;" d="M897.6-41.6c-43.2 0-78.4 28.8-78.4 62.4 0 35.2 35.2 62.4 78.4 62.4 19.2 0 33.6 12.8 33.6 27.2 0 0 0 1.6 0 1.6v724.8c0 14.4-16 27.2-33.6 27.2h-643.2c-81.6 0-147.2-52.8-147.2-116.8v-724.8c0-65.6 65.6-116.8 147.2-116.8h644.8c19.2 0 33.6 12.8 33.6 27.2 0 14.4-16 25.6-35.2 25.6v0zM288 809.6h576v-670.4h-576v670.4zM174.4 747.2c0 24 17.6 46.4 44.8 56v-667.2c-16-3.2-30.4-8-44.8-14.4l0 625.6zM772.8-41.6h-518.4c-43.2 0-78.4 28.8-78.4 62.4 0 35.2 35.2 62.4 78.4 62.4h520c-14.4-19.2-24-40-24-62.4 0-20.8 8-43.2 22.4-62.4v0zM772.8-41.6z"  horiz-adv-x="1024" />

    
    <glyph glyph-name="ap-download" unicode="&#58937;" d="M797.3 12.8h-570.6c-63 0-114.1 51.1-114.1 114.1v142.7c0 15.7 12.8 28.5 28.5 28.5h57.1c15.7 0 28.5-12.8 28.5-28.5v-85.6c0-31.5 25.5-57.1 57.1-57.1h456.4c31.5 0 57.1 25.5 57.1 57.1v85.6c0 15.7 12.8 28.5 28.5 28.5h57.1c15.7 0 28.5-12.8 28.5-28.5v-142.6c-0-63.1-51.1-114.2-114.1-114.2v0zM280.1 572.5c11.5 11.5 30.3 11.5 41.8 0l133-133.1v287.2c0 15.7 12.8 28.5 28.5 28.5h57c15.8 0 28.5-12.8 28.5-28.5v-287.2l133 133.1c11.5 11.5 30.3 11.5 41.8 0l41.8-41.8c11.5-11.5 11.5-30.3 0-41.8l-235.4-235.6c-1-1-19.3-12.2-37.8-12.2-18.6 0-37.4 11.2-38.4 12.2l-235.6 235.6c-11.5 11.6-11.5 30.3 0 41.8l41.8 41.8z"  horiz-adv-x="1024" />

    
    <glyph glyph-name="ap-openfiles" unicode="&#58938;" d="M736.529 95.184c19.68 0 42.794 12.73 51.212 30.084l163.734 309.853c9.795 18.857-4.446 30.085-30.084 30.085h-165.342v74.041c0 25.553-20.79 46.341-46.341 46.341h-404.779l-30.033 78.827c-3.127 8.187-10.975 13.604-19.744 13.604h-164.211c-5.619 0-11.018-2.24-14.99-6.231-3.962-3.994-6.17-9.392-6.138-15.022l0.401-117.52-0.802-397.86c0-25.554 20.789-46.341 46.341-46.341l620.777 0.139zM713.796 465.197h-360.539c-16.617 0-32.335-13.427-40.65-30.085l-147.214-297.81h-49.641c-2.25 0-4.087 1.838-4.087 4.087v397.977l-0.020 96.394h128.949l30.033-78.826c3.127-8.188 10.976-13.606 19.744-13.606h419.337c2.25 0 4.087-1.839 4.087-4.087v-74.043z"  horiz-adv-x="1024" />

    
    <glyph glyph-name="ap-save" unicode="&#58939;" d="M800.814 714.073c-20.63 0-68.767 0-75.639 0-6.878 0-6.878-6.878-6.878-6.878v-185.666c0 0 0-13.75-13.75-13.75s-385.083 0-385.083 0-13.75 0-13.75 13.75c0 13.757 0 137.535 0 137.535s0 13.75 13.75 13.75c13.75 0 13.75 0 13.75 0 13.75 0 13.75-13.75 13.75-13.75v-103.148c0 0 0-6.878 6.872-6.878 6.878 0 302.573 0 316.323 0 6.878 0 6.878 6.878 6.878 6.878v151.279c0 0 0 6.878-6.878 6.878-4.696 0-108.703 0-176.449 0-31.506 0-55.172 0-57.354 0h-55.010c-1.624 0-4.795 0-9.213 0-14.295 0-41.786 0-73.306 0-41.259 0-48.151-13.764-48.151-13.764l-54.997-55.003c0 0-13.75-6.872-13.75-41.259 0-34.38 0-488.231 0-508.86 0-20.63 20.63-41.259 41.259-41.259s556.999 0 577.628 0c20.63 0 41.259 20.63 41.259 41.259 0 20.63 0 556.999 0 577.627s-20.632 41.259-41.26 41.259zM759.554 108.937c0-13.75-13.75-13.75-13.757-13.75h-467.601c0 0-13.75 0-13.75 13.75s0 212.31 0 222.628c0 10.317 5.73 16.907 5.73 16.907l27.792 27.792c0 0 7.736 7.736 19.771 7.736 9.454 0 373.53 0 386.806 0 13.268 0 20.63-6.878 20.63-6.878l27.502-27.508c0 0 6.878-5.301 6.878-20.63 0-48.369 0-208.389 0-220.047zM711.417 177.704h-398.834c-7.566 0-13.75-6.192-13.75-13.75v-13.75c0-7.566 6.186-13.75 13.75-13.75h398.841c7.566 0 13.757 6.192 13.757 13.75v13.75h-0.007c0 7.566-6.192 13.75-13.757 13.75zM711.417 260.223h-398.834c-7.566 0-13.75-6.192-13.75-13.75v-13.75c0-7.566 6.186-13.75 13.75-13.75h398.841c7.566 0 13.757 6.192 13.757 13.75v13.75h-0.007c0 7.566-6.192 13.75-13.757 13.75zM711.417 342.741h-398.834c-7.566 0-13.75-6.192-13.75-13.75v-13.75c0-7.566 6.186-13.75 13.75-13.75h398.841c7.566 0 13.757 6.192 13.757 13.75v13.75h-0.007c0 7.566-6.192 13.75-13.757 13.75z"  horiz-adv-x="1024" />

    
    <glyph glyph-name="ap-exportfiles" unicode="&#59017;" d="M796.337 282.575c-2.43 6.86-10.333 12.418-17.67 12.374l-645.374 0.219c-7.337-0.044-11.331-5.689-8.943-12.549l111.67-322.947c2.432-6.902 10.335-12.418 17.628-12.373l641.075-0.218c7.295 0.042 11.289 5.644 8.856 12.547l-107.243 322.947zM869.67 497.907h-156.875c-25.632 0-46.468-19.425-46.468-43.387v-56.020l-343.112 0c-20.559-32.278-30.286-54.767-30.286-54.767-0.045 19.090 0.645 37.332 2.075 54.767h-76.064c-9.034 0-16.317-6.794-16.317-15.156v-64.155l590.57-0.179c8.297 0.045 17.195-6.036 19.961-13.547l102.985-300.745v449.802c0 23.962-20.792 43.387-46.467 43.387zM766.96 595.742l0.417-92.935 150.281 164.48-150.559 160.84 0.415-88.211c0 0-438.859 25.101-472.511-340.416h28.212c56.609 77.63 195.828 219.868 443.746 196.242z"  horiz-adv-x="1024" />

    
    <glyph glyph-name="ap-lefttwoarrow" unicode="&#58940;" d="M567.040 813.689c-28.523 28.493-74.771 28.494-103.294 0l-367.731-367.366c-2.564-1.966-5.211-3.828-7.55-6.183l-1.069-1.039c-14.429-14.429-21.427-33.382-21.241-52.297-0.186-18.907 6.811-37.86 21.241-52.29l1.069-1.039c2.34-2.355 4.987-4.217 7.55-6.183l367.732-367.366c28.523-28.493 74.771-28.494 103.294 0l1.024 1.047c28.514 28.5 28.514 74.704 0 103.197l-322.934 322.635 322.934 322.642c28.514 28.493 28.514 74.697 0 103.197l-1.025 1.049zM837.55-40.074c28.53-28.493 74.763-28.493 103.286 0l1.062 1.047c28.507 28.5 28.507 74.704 0 103.197l-322.956 322.635 322.956 322.642c28.507 28.493 28.507 74.697 0 103.197l-1.062 1.047c-28.523 28.493-74.756 28.493-103.286 0l-367.695-367.364c-2.594-1.966-5.226-3.828-7.596-6.183l-1.024-1.039c-14.459-14.429-21.443-33.382-21.285-52.297-0.157-18.908 6.826-37.86 21.285-52.29l1.024-1.039c2.37-2.355 5.002-4.217 7.596-6.183l367.696-367.366z"  horiz-adv-x="1024" />

    
    <glyph glyph-name="ap-righttwoarrow" unicode="&#58941;" d="M456.96-45.689c28.523-28.493 74.771-28.494 103.294 0l367.731 367.366c2.564 1.966 5.211 3.828 7.55 6.183l1.069 1.039c14.429 14.429 21.427 33.382 21.241 52.297 0.186 18.907-6.811 37.86-21.241 52.29l-1.069 1.039c-2.34 2.355-4.987 4.217-7.55 6.183l-367.732 367.366c-28.523 28.493-74.771 28.494-103.294 0l-1.024-1.047c-28.514-28.5-28.514-74.704 0-103.197l322.934-322.635-322.934-322.642c-28.514-28.493-28.514-74.697 0-103.197l1.025-1.049zM186.45 808.074c-28.53 28.493-74.763 28.493-103.286 0l-1.062-1.047c-28.507-28.5-28.507-74.704 0-103.197l322.956-322.635-322.956-322.642c-28.507-28.493-28.507-74.697 0-103.197l1.062-1.047c28.523-28.493 74.756-28.493 103.286 0l367.695 367.364c2.594 1.966 5.226 3.828 7.596 6.183l1.024 1.039c14.459 14.429 21.443 33.382 21.285 52.297 0.157 18.908-6.826 37.86-21.285 52.29l-1.024 1.039c-2.37 2.355-5.002 4.217-7.596 6.183l-367.696 367.366z"  horiz-adv-x="1024" />

    
    <glyph glyph-name="ap-organization" unicode="&#58942;" d="M722.824 775.529c18.071 0 30.118-12.047 30.118-30.118v-180.706c0-18.071-12.047-30.118-30.118-30.118l-421.647-0c-18.071 0-30.118 12.047-30.118 30.118v180.706c0 18.071 12.047 30.118 30.118 30.118h421.647M722.824 835.765h-421.647c-51.2 0-90.353-39.153-90.353-90.353v-180.706c0-51.2 39.153-90.353 90.353-90.353h421.647c51.2 0 90.353 39.153 90.353 90.353l0 180.706c0 51.2-39.153 90.353-90.353 90.353v0zM783.059 384h-542.118c-51.2 0-90.353-39.153-90.353-90.353v-150.588h60.235v150.588c0 18.071 12.047 30.118 30.118 30.118h542.118c18.071 0 30.118-12.047 30.118-30.118v-54.212l0-36.141v-60.235h60.235v150.588c0 51.2-39.153 90.353-90.353 90.353zM542.118 504.471h-60.235v-331.294h60.235v331.294zM177.694 143.059c48.188 0 87.341-33.129 87.341-75.294s-39.153-75.294-87.341-75.294-87.341 33.129-87.341 75.294 39.153 75.294 87.341 75.294M177.694 203.294c-81.318 0-147.576-60.235-147.576-135.529s66.259-135.529 147.576-135.529c81.318 0 147.576 60.235 147.576 135.529s-66.259 135.529-147.576 135.529v0zM846.306 143.059c48.188 0 87.341-33.129 87.341-75.294s-39.153-75.294-87.341-75.294-87.341 33.129-87.341 75.294 39.153 75.294 87.341 75.294M846.306 203.294c-81.318 0-147.576-60.235-147.576-135.529s66.259-135.529 147.576-135.529c81.318 0 147.576 60.235 147.576 135.529s-66.259 135.529-147.576 135.529v0zM499.953 143.059c48.188 0 87.341-33.129 87.341-75.294s-39.153-75.294-87.341-75.294-87.341 33.129-87.341 75.294 39.153 75.294 87.341 75.294M499.953 203.294c-81.318 0-147.576-60.235-147.576-135.529s66.259-135.529 147.576-135.529 147.576 60.235 147.576 135.529-66.259 135.529-147.576 135.529v0z"  horiz-adv-x="1024" />

    
    <glyph glyph-name="ap-version" unicode="&#58975;" d="M967.01 384c0 251.28-203.715 454.995-455.01 454.995s-455.01-203.715-455.01-454.995c0-251.295 203.715-454.995 455.01-454.995 251.295 0 455.01 203.7 455.01 454.995M576.83 175.06500000000005c-67.215-71.85-152.19-94.74-162.345-40.695-7.65 40.755 32.535 188.52 40.59 244.185 2.625 18.18-20.295 0-20.295 0s-65.97-46.455-81.15-20.355c-2.43 4.155 13.845 16.92 20.295 20.355 0 0 137.61 101.1 182.625 81.39s-15.855-144.345-20.295-162.795c-4.44-18.45-32.97-159.615 60.87-81.405 0 0.015 46.92 31.185-20.295-40.68zM542.51 521.115c-39.165 2.145-69.18 35.73-67.035 75 2.13 39.27 35.625 69.375 74.79 67.23 39.165-2.145 69.18-35.73 67.035-75-2.13-39.285-35.625-69.375-74.79-67.23z"  horiz-adv-x="1024" />

    
    <glyph glyph-name="ap-operation" unicode="&#58943;" d="M800.897 488.085h-2.262c-16.713 0-30.429-4.801-43.64-12.977-11.561 33.719-40.968 58.008-78.843 58.008-16.714 0-32.677-4.801-45.886-12.977-11.562 33.717-40.982 58.008-78.859 58.008-14.772 0-28.5-3.701-40.652-10.203v86.756c0 47.254-35.742 85.561-83.338 85.561-47.599 0-86.183-38.306-86.183-85.561l0-332.164-52.357 52.143c-33.658 33.413-93.226 28.656-121.882 0-28.657-28.657-47.451-86.335-6.415-127.371l240.683-239.105c4.965-4.928 10.424-9.041 16.165-12.516 43.883-35.798 94.168-56.991 200.498-56.991 242.907 0 265.403 131.049 265.403 292.705l0 171.123c0.001 47.253-34.833 85.56-82.432 85.56v0zM837.967 231.406c0-136.787-0.653-247.674-220.043-247.674-92.938 0-148.734 20.723-191.003 62.686l-227.852 226.368c-20.159 20.159-15.089 45.934 1.414 62.437 16.502 16.503 46.792 17.074 62.734 1.247 0 0 39.976-39.74 74.418-73.978 26.065-25.91 48.959-48.67 48.959-48.67v431.873c0 22.384 18.278 40.528 40.825 40.528 22.544 0 37.978-18.145 37.978-40.528v-274.692h0.457c-0.298-1.455-0.457-2.96-0.457-4.504 0-12.433 10.154-22.516 22.68-22.516 12.524 0 22.679 10.081 22.679 22.516 0 1.543-0.159 3.048-0.457 4.504h0.457l0 112.579c0 22.384 16.312 40.529 38.858 40.529 0 0 39.945 0.54 39.945-40.529v-148.602h0.457c-0.298-1.457-0.457-2.961-0.457-4.504 0-12.435 10.154-22.517 22.679-22.517 12.525 0 22.68 10.081 22.68 22.517 0 1.542-0.159 3.047-0.457 4.504h0.457l0 103.57c0 22.385 16.051 40.531 38.598 40.531 0 0 40.775-2.539 40.775-40.531v-130.59h0.457c-0.298-1.455-0.457-2.961-0.457-4.504 0-12.435 10.154-22.516 22.679-22.516 12.526 0 22.111 10.080 22.111 22.516 0 1.542-0.149 3.048-0.432 4.504h0.432v89.162c0 22.382 16.819 40.529 39.365 40.529 0 0 39.525 1.598 39.525-40.529 0 0.001 0-129.295 0-165.714v0zM307.56 527.132v75.666c-7.201 16.142-11.29 33.975-11.29 52.792 0 71.704 58.127 129.831 129.831 129.831 71.703 0 129.831-58.127 129.831-129.831 0-9.794-1.157-19.304-3.236-28.466 16.33-0.636 31.063-7.416 41.789-18.299 4.158 14.904 6.604 30.523 6.604 46.765 0 96.642-78.346 174.989-174.989 174.989-96.644 0-174.989-78.346-174.989-174.989 0.001-50.848 21.82-96.485 56.45-128.459v0z"  horiz-adv-x="1024" />

    
    <glyph glyph-name="ap-VS" unicode="&#58944;" d="M542.272 660.8l-198.592-536h-83.008l-198.656 536h82.24l159.872-444.928 159.808 444.928h78.336zM758.784 115.072c-41.92 0-77.504 3.968-106.944 11.968-29.248 8.128-57.024 17.984-82.816 29.888v89.216h5.376c25.344-22.080 54.144-39.168 86.208-51.264 32.128-12.16 62.976-18.176 92.672-18.176 42.432 0 74.56 8.256 96.256 24.64 21.76 16.512 32.64 38.016 32.64 65.024 0 21.312-5.696 38.72-17.216 52.16-11.264 13.44-29.44 23.36-54.272 29.824-17.856 4.864-34.112 8.768-48.832 11.84-14.72 3.136-33.408 7.36-55.552 12.672-20.032 4.736-37.76 10.88-53.504 18.368-15.808 7.296-29.696 17.024-41.92 29.056-11.904 11.776-21.184 25.6-27.712 41.6-6.592 15.936-9.92 34.368-9.92 55.232 0 43.456 18.24 79.872 54.656 109.248 36.48 29.44 83.072 44.16 139.776 44.16 32.256 0 62.848-3.008 91.648-8.96 28.864-6.016 55.616-14.592 80.128-25.6v-85.312h-5.824c-18.368 15.616-41.856 29.248-70.656 40.896-28.608 11.648-58.752 17.472-90.368 17.472-35.712 0-64.512-7.808-86.528-23.232-21.952-15.488-32.96-35.776-32.96-60.992 0-22.784 6.528-40.896 19.392-54.336 12.992-13.504 31.68-23.296 56.256-29.504 16.32-4.16 36.288-8.704 59.776-13.952 23.616-5.12 43.136-9.856 58.624-14.208 39.872-11.264 68.928-28.288 87.296-51.072s27.52-50.88 27.52-84.224c0-20.736-4.608-41.472-13.76-61.888-9.344-20.288-22.144-37.632-38.592-51.84-18.752-15.616-39.616-27.648-63.168-36.032-23.232-8.512-52.416-12.672-87.68-12.672v0z"  horiz-adv-x="1024" />

    
    <glyph glyph-name="ap-exitfullscreen" unicode="&#58945;" d="M580.188 277.862c-3.83 29.312 9.267 43.039 39.286 41.16l235.684-26.189c18.524-1.869 30.346-7.014 35.456-15.442 5.11-8.422 2.232-17.93-8.632-28.539-7.020-6.231-15.652-14.812-25.861-25.728-10.22-10.911-18.852-19.799-25.876-26.66-7.025-7.491-9.267-14.351-6.707-20.588 2.56-6.236 7.66-13.409 15.329-21.519 17.889-16.84 34.171-32.118 48.865-45.844 14.684-13.716 30.976-29.624 48.855-47.713 3.835-3.738 7.67-7.798 11.5-12.16 3.84-4.372 6.712-9.201 8.632-14.51 1.91-5.299 2.232-10.916 0.957-16.835-1.28-5.924-5.432-12.319-12.457-19.185-3.83-3.738-7.025-7.009-9.58-9.82-2.56-2.811-5.12-5.304-7.67-7.491-2.555-2.181-5.268-4.68-8.141-7.48-2.883-2.806-6.548-6.712-11.023-11.699-12.774-12.477-24.586-17.782-35.446-15.898-10.854 1.859-22.682 9.042-35.451 21.514s-25.866 25.103-39.281 37.893c-13.409 12.785-28.431 27.284-45.030 43.51-12.14 11.223-22.518 19.021-31.14 23.383-8.622 4.372-17.091 2.493-25.39-5.617-5.75-5.612-12.933-12.308-21.56-20.111-8.622-7.798-16.128-14.822-22.508-21.048-10.86-10.604-20.598-14.664-29.225-12.17-8.627 2.499-13.896 11.853-15.805 28.068l-27.781 236.718zM438.426 495.037c1.92-16.22-0.164-27.448-6.226-33.69-6.072-6.236-16.768-8.73-32.097-7.48l-235.689 26.199c-19.169 1.869-31.14 7.020-35.932 15.437s-1.756 17.93 9.093 28.534c6.395 6.236 14.223 14.346 23.48 24.33 9.262 9.984 17.403 18.401 24.428 25.257 7.67 7.491 10.225 14.346 7.67 20.588-2.555 6.236-7.987 13.409-16.292 21.519-8.305 8.735-16.123 16.369-23.47 22.917-7.347 6.548-14.531 13.102-21.555 19.651-7.030 6.548-14.372 13.568-22.031 21.048l-23.962 23.398c-3.835 3.738-7.506 8.105-11.013 13.092-3.517 4.997-6.077 10.296-7.665 15.908-1.597 5.617-1.439 11.535 0.476 17.777 1.92 6.241 6.067 12.472 12.452 18.714l10.537 10.296c2.56 2.493 4.956 4.987 7.188 7.48 2.237 2.493 4.946 4.987 8.146 7.485l10.537 11.228c12.774 12.472 23.793 17.157 33.055 14.034s20.28-10.916 33.060-23.393c12.774-12.472 24.909-24.172 36.403-35.087 11.5-10.916 25.549-24.484 42.158-40.699 11.5-11.233 21.719-19.026 30.659-23.393 8.945-4.367 17.567-2.499 25.871 5.612 5.745 6.236 13.727 13.88 23.951 22.922 10.22 9.047 18.519 16.691 24.909 22.927 10.86 10.604 20.439 14.659 28.744 12.16 8.305-2.493 13.409-11.848 15.329-28.063l27.786-236.708zM623.099 453.637c-16.609-1.869-28.099 0.159-34.488 6.083-6.39 5.929-8.94 16.691-7.66 32.282l26.819 230.17c1.915 18.094 7.183 29.629 15.816 34.621 8.617 4.987 18.36 1.869 29.215-9.359 6.39-6.236 14.689-13.88 24.909-22.922 10.22-9.047 18.852-16.998 25.871-23.864 7.67-6.856 14.694-9.201 21.079-7.014 6.39 2.176 13.732 7.332 22.042 15.432 17.239 16.845 32.415 32.128 45.512 45.855 13.092 13.727 28.575 29.317 46.459 46.781 3.83 3.743 8.305 7.332 13.42 10.762 5.11 3.436 10.542 5.924 16.287 7.485 5.745 1.556 11.817 1.403 18.207-0.466 6.385-1.874 12.769-6.241 19.159-13.107 3.83-3.743 7.178-6.861 10.066-9.354 2.872-2.493 5.586-4.992 8.141-7.485 2.555-2.488 5.268-4.987 8.141-7.485 2.877-2.493 6.543-6.231 11.023-11.228 12.769-12.472 17.879-23.383 15.319-32.742-2.55-9.359-10.532-20.27-23.951-32.748l-36.408-37.432c-12.129-12.483-26.511-26.819-43.11-43.034-12.14-11.233-20.439-21.212-24.919-29.947-4.46-8.735-2.232-16.84 6.723-24.325 5.74-5.612 13.092-13.261 22.031-22.922 8.945-9.672 16.604-17.623 22.994-23.859 10.86-10.614 15.012-19.963 12.457-28.068-2.55-8.11-12.129-13.097-28.739-14.966l-242.412-27.141zM398.71 316.288c15.969 1.249 27.305-1.091 34.007-7.020 6.717-5.919 9.426-16.369 8.146-31.34l-26.824-230.164c-1.915-18.714-7.188-30.413-15.811-35.092-8.617-4.669-18.36-1.705-29.22 8.893-6.395 6.236-15.171 14.346-26.348 24.325-11.187 9.979-20.28 18.412-27.31 25.262-7.67 7.485-14.054 10.762-19.164 9.825-5.11-0.927-11.494-5.453-19.164-13.553-8.31-8.11-16.282-16.072-23.946-23.869s-15.334-15.432-22.999-22.922c-7.665-7.48-15.488-15.278-23.47-23.393-7.987-8.105-16.445-16.522-25.39-25.267-3.835-3.738-7.987-7.48-12.462-11.218-4.47-3.743-9.416-6.548-14.843-8.428-5.427-1.874-11.177-2.028-17.244-0.466-6.077 1.556-12.621 5.77-19.645 12.626-3.835 3.743-7.183 6.866-10.061 9.364-2.877 2.488-5.591 4.992-8.141 7.48l-7.67 8.422-11.5 10.301c-12.769 12.472-18.36 23.849-16.763 34.15 1.603 10.291 9.108 21.985 22.518 35.092 12.129 11.843 24.904 24.479 38.318 37.888s28.421 28.227 45.030 44.442c11.505 11.228 18.683 20.424 21.555 27.602 2.877 7.168 0.164 14.817-8.141 22.932-6.395 5.601-13.573 12.621-21.555 21.048-7.987 8.422-15.181 15.739-21.56 21.98-10.865 10.609-14.858 19.968-11.981 28.073 2.877 8.105 12.616 13.097 29.225 14.966l242.412 28.058z"  horiz-adv-x="1024" />

    
    <glyph glyph-name="home" unicode="&#58934;" d="M511.003 897.024l-204.052-204.052v81.621h-163.241v-244.862l-143.709-143.714 28.853-28.853 482.149 482.15 482.153-482.149 28.853 28.853-511.007 511.006zM184.52 733.783h81.621v-81.621l-81.621-81.621v163.242zM143.709 366.49v-489.724h285.672v285.672h163.241v-285.672h285.672v489.724l-367.292 367.293-367.293-367.293zM837.485-82.424h-204.051v285.672h-244.862v-285.672h-204.051v432.014l326.483 326.482 326.482-326.482v-432.014z"  horiz-adv-x="1024" />

    
    <glyph glyph-name="ap-rightarrow" unicode="&#58946;" d="M519.001 833.021c-243.408 0-440.729-197.323-440.729-440.727 0-243.406 197.322-440.727 440.729-440.727 243.406 0 440.729 197.322 440.729 440.727 0 243.405-197.323 440.727-440.729 440.727zM790.149 368.221l-262.109-261.713c-5.998-6.27-14.905-10.017-23.827-10.017-9.043 0-17.973 3.747-24.583 10.364l-29.769 29.36c-6.438 6.723-10.133 15.754-10.133 24.769 0 8.898 3.694 17.918 9.863 24.105l147.155 147.135h-323.84c-18.633 0-34.369 15.734-34.369 34.366v51.402c0 18.631 15.737 34.369 34.369 34.369h323.84l-147.148 147.116c-12.449 12.492-12.267 35.799-0.007 48.624l29.866 29.857c6.715 6.438 15.73 10.133 24.757 10.133 8.907 0 17.915-3.694 24.105-9.9l261.571-261.142c12.769-13.329 12.677-36.435 0.259-48.827z"  horiz-adv-x="1024" />

    
    <glyph glyph-name="ap-leftarrow" unicode="&#58947;" d="M518.701-48.435c243.408 0 440.729 197.323 440.729 440.727 0 243.406-197.322 440.727-440.729 440.727-243.406 0-440.727-197.322-440.727-440.727-0.001-243.405 197.322-440.727 440.727-440.727zM247.552 416.365l262.11 261.713c5.998 6.271 14.905 10.017 23.827 10.017 9.043 0 17.974-3.747 24.583-10.364l29.769-29.36c6.438-6.723 10.133-15.754 10.133-24.769 0-8.898-3.694-17.918-9.863-24.105l-147.155-147.135h323.84c18.633 0 34.369-15.734 34.369-34.366v-51.402c0-18.631-15.737-34.369-34.369-34.369h-323.84l147.148-147.116c12.449-12.492 12.267-35.799 0.007-48.624l-29.866-29.857c-6.715-6.438-15.73-10.133-24.757-10.133-8.907 0-17.915 3.694-24.102 9.9l-261.571 261.142c-12.771 13.329-12.679 36.434-0.261 48.827z"  horiz-adv-x="1024" />

    
    <glyph glyph-name="ap-more" unicode="&#58948;" d="M120.32 540.16c-66.56 0-120.32-53.76-120.32-117.76 0-66.56 53.76-120.32 120.32-120.32 66.56 0 120.32 53.76 120.32 120.32-2.56 64-53.76 117.76-120.32 117.76v0zM499.2 540.16c-66.56 0-120.32-53.76-120.32-120.32 0-66.56 53.76-120.32 120.32-120.32 66.56 0 120.32 53.76 120.32 120.32 0 66.56-53.76 120.32-120.32 120.32v0zM903.68 540.16c-66.56 0-120.32-53.76-120.32-120.32 0-66.56 53.76-120.32 120.32-120.32 66.56 0 120.32 53.76 120.32 120.32 0 66.56-53.76 120.32-120.32 120.32v0z"  horiz-adv-x="1024" />

    
    <glyph glyph-name="ap-modify" unicode="&#58949;" d="M184.485 234.268l200.456-208.858 492.222 512.546-200.448 208.858-492.23-512.546zM24.381-103.335l315.135 76.474-202.973 211.497-112.161-287.971zM931.357 801.703c-57.54 59.962-108.881 100.322-166.421 40.365l-38.152-43.794 203.131-212.367 41.782 40.72c57.545 59.951 17.204 115.128-40.341 175.076v0 0z"  horiz-adv-x="1024" />

    
    <glyph glyph-name="ap-subtract" unicode="&#58950;" d="M512 895.754c-282.184 0-511.754-229.576-511.754-511.754 0-282.184 229.571-511.754 511.754-511.754 282.184 0 511.754 229.571 511.754 511.754 0 282.179-229.571 511.754-511.754 511.754zM512-50.954c-239.836 0-434.954 195.118-434.954 434.954s195.118 434.954 434.954 434.954 434.954-195.118 434.954-434.954-195.118-434.954-434.954-434.954zM752.64 422.4h-481.28c-21.207 0-38.4-17.193-38.4-38.4 0-21.212 17.193-38.405 38.4-38.405h481.28c21.212 0 38.4 17.193 38.4 38.405 0 21.207-17.188 38.4-38.4 38.4z"  horiz-adv-x="1024" />

    
    <glyph glyph-name="liebiao" unicode="&#58909;" d="M896 640H608c-17.696 0-32 14.336-32 32s14.304 32 32 32h288c17.696 0 32-14.336 32-32s-14.304-32-32-32z m0-160H608c-17.696 0-32 14.336-32 32s14.304 32 32 32h288c17.696 0 32-14.336 32-32s-14.304-32-32-32z m0-256H608c-17.696 0-32 14.304-32 32s14.304 32 32 32h288c17.696 0 32-14.304 32-32s-14.304-32-32-32z m0-160H608c-17.696 0-32 14.304-32 32s14.304 32 32 32h288c17.696 0 32-14.304 32-32s-14.304-32-32-32zM384 416H192c-52.928 0-96 43.072-96 96V704c0 52.928 43.072 96 96 96h192c52.928 0 96-43.072 96-96v-192c0-52.928-43.072-96-96-96zM192 736c-17.632 0-32-14.368-32-32v-192c0-17.632 14.368-32 32-32h192c17.632 0 32 14.368 32 32V704c0 17.632-14.368 32-32 32H192z m192-768H192c-52.928 0-96 43.072-96 96V256c0 52.928 43.072 96 96 96h192c52.928 0 96-43.072 96-96v-192c0-52.928-43.072-96-96-96zM192 288c-17.632 0-32-14.336-32-32v-192c0-17.664 14.368-32 32-32h192c17.632 0 32 14.336 32 32V256c0 17.664-14.368 32-32 32H192z"  horiz-adv-x="1024" />

    
    <glyph glyph-name="ap-date" unicode="&#58951;" d="M182.784 773.514v0M238.182 127.872h166.18v110.792h-166.18v-110.792M792.105 828.897h-55.383v-166.18h55.383v166.18M293.565 828.897h-55.383v-166.18h55.388l-0.005 166.18M238.182 294.052h166.18v110.781h-166.18v-110.781M847.058 773.514l0.44-0.005v0.005h-0.44M681.318 294.052h110.787v110.781h-110.787v-110.781M847.498 773.509v-83.092c0-45.88-37.212-83.092-83.092-83.092s-83.087 37.207-83.087 83.092v83.098h-332.355v-83.098c0-45.88-37.207-83.092-83.092-83.092-45.896 0-83.092 37.207-83.092 83.092v83.092c-61.23-0.236-110.781-49.935-110.781-111.217v-607.944c0-61.414 49.787-111.734 111.222-111.734h663.839c61.42 0 111.222 49.797 111.222 111.217v608.461c0.005 61.281-49.562 110.976-110.781 111.217M902.221 52.475c0-30.587-24.812-55.383-55.388-55.383h-664.73c-30.587 0-55.383 24.791-55.383 55.383v406.216c0 30.587 24.796 55.393 55.383 55.393h664.73c30.587 0 55.388-24.806 55.388-55.393v-406.216M459.75 294.052h166.175v110.781h-166.175v-110.781M459.75 127.872h166.175v110.792h-166.175v-110.792M681.318 127.872h110.787v110.792h-110.787v-110.792M681.318 127.872z"  horiz-adv-x="1024" />

    
    <glyph glyph-name="ap-thinarrow-left" unicode="&#58902;" d="M732.553 4.198c13.722-13.926 13.722-36.301 0-50.125s-35.891-13.875-49.613 0l-400.896 404.89c-6.356 6.44-10.282 15.293-10.282 25.062s3.926 18.622 10.286 25.066l400.892 404.886c13.722 13.824 35.891 13.824 49.613 0s13.722-36.301 0-50.125l-365.619-379.853 365.619-379.802z"  horiz-adv-x="1024" />

    
    <glyph glyph-name="ap-thinarrow-down" unicode="&#58913;" d="M891.802 604.553c13.926 13.722 36.301 13.722 50.125 0s13.875-35.891 0-49.613l-404.89-400.896c-6.44-6.356-15.293-10.282-25.062-10.282s-18.622 3.926-25.066 10.286l-404.886 400.892c-13.824 13.722-13.824 35.891 0 49.613s36.301 13.722 50.125 0l379.853-365.619 379.802 365.619z"  horiz-adv-x="1024" />

    
    <glyph glyph-name="ap-thinarrow-right" unicode="&#58915;" d="M657.067 384l-365.619 379.904c-6.356 6.44-10.282 15.293-10.282 25.062s3.926 18.622 10.286 25.066c6.315 6.409 15.095 10.383 24.803 10.383 9.708 0 18.488-3.973 24.802-10.382l400.9-404.894c6.356-6.44 10.282-15.293 10.282-25.062s-3.926-18.622-10.286-25.066l-400.892-404.886c-13.722-13.875-35.891-13.824-49.613 0s-13.722 36.198 0 50.125l365.619 379.75z"  horiz-adv-x="1024" />

    
    <glyph glyph-name="ap-thinarrow-up" unicode="&#58922;" d="M132.198 163.447c-13.926-13.722-36.301-13.722-50.125 0s-13.875 35.891 0 49.613l404.89 400.896c6.44 6.356 15.293 10.282 25.062 10.282s18.622-3.926 25.066-10.286l404.886-400.892c13.824-13.722 13.824-35.891 0-49.613s-36.301-13.722-50.074 0l-379.904 365.619-379.802-365.619z"  horiz-adv-x="1024" />

    
    <glyph glyph-name="ap-stop" unicode="&#58952;" d="M380.606 90.149c0-44.54-36.107-80.65-80.65-80.65v0c-44.541 0-80.649 36.11-80.649 80.65v585.459c0 44.541 36.107 80.65 80.649 80.65v0c44.543 0 80.65-36.109 80.65-80.65v-585.459zM801.28 90.149c0-44.54-36.11-80.65-80.65-80.65v0c-44.541 0-80.65 36.11-80.65 80.65l0 585.459c0 44.541 36.109 80.65 80.65 80.65v0c44.54 0 80.65-36.109 80.65-80.65l-0-585.459z"  horiz-adv-x="1024" />

    
    <glyph glyph-name="ap-workreport" unicode="&#58955;" d="M639.932 89.472h-572.631c-2.259-8.645-3.835-17.55-3.835-26.905 0-59.434 48.187-107.621 107.621-107.621h565.010s8.515 0.134 21.072 3.601c-53.391 32.121-98.739 100.343-117.237 130.925zM292.16 815.914c-66.842 0-121.072-54.204-121.072-121.073 0-4.61 0.867-8.972 1.366-13.452h-1.366v-538.106h500.111l7.726-13.833c30.848-55.439 92.513-133.818 132.896-134.472 1.21 0 3.023-0.015 5.308 0.393 22.518 23.713 43.565 61.258 53.496 121.007v565.009h1.366c-0.498 4.481-1.366 8.843-1.366 13.452 0 52.643 33.817 96.98 80.715 113.665v7.409h-659.18zM628.475 331.619h-349.768v53.811h349.768v-53.811zM736.096 466.145h-457.389v53.811h457.389v-53.811zM736.096 600.671h-457.389v53.811h457.389v-53.811z"  horiz-adv-x="1024" />

    
    <glyph glyph-name="ap-scanning" unicode="&#58956;" d="M154.524 741.52h714.93v-714.994h-714.93zM227.137-62.752h-161.847v161.89h22.103v-139.787h139.744zM958.709-62.752h-161.848v22.103h139.743v139.787h22.105zM87.393 668.863h-22.103v161.89h161.847v-22.103h-139.744zM958.709 668.863h-22.105v139.787h-139.743v22.103h161.848z"  horiz-adv-x="1024" />

    
    <glyph glyph-name="ap-clean" unicode="&#58957;" d="M989.227 746.24l-114.773 114.987c-3.413 3.413-7.467 5.973-11.947 7.893-12.8 5.333-28.16 2.773-38.613-7.893l-206.507-206.293-168.747 168.747c-5.333 5.12-11.733 8.533-18.56 9.813-11.307 2.347-23.467-0.853-32.213-9.813l-129.067-129.28 553.387-553.6 128 128c0.64 0.427 1.067 1.067 1.707 1.493 13.867 13.867 13.867 36.267 0 50.347l-169.173 169.173 204.587 204.587c0.64 0.64 1.28 1.067 1.92 1.707 14.080 13.867 14.080 36.267 0 50.133zM218.453 644.267l-183.68-183.68c-3.413-3.413-5.973-7.467-7.893-11.947-5.333-12.8-2.773-28.16 7.893-38.613l94.507-94.293 104.747 104.747c13.867 13.867 36.267 13.867 50.347 0 13.867-13.867 13.867-36.48 0-50.347l-104.747-104.747 82.347-82.347 135.253 135.253c13.867 13.867 36.267 13.867 50.347 0 13.867-13.867 13.867-36.48 0-50.347l-135.253-135.253 80.64-80.64c0.64 0.64 1.28 1.28 1.92 2.133l102.827 102.827c13.867 13.867 36.267 13.867 50.347 0 13.867-13.867 13.867-36.267 0-50.347l-102.827-102.827c-0.64-0.64-1.493-1.28-2.133-1.92l95.36-95.147c9.6-9.6 23.253-12.587 35.413-8.96 0.213 0 0.427 0.213 0.64 0.213 0.853 0.213 1.707 0.64 2.56 0.853 0.427 0.213 0.64 0.427 1.067 0.427 0.64 0.213 1.28 0.64 2.133 0.853l1.28 0.64c0.64 0.427 1.28 0.64 1.92 1.067 0.427 0.213 0.853 0.64 1.067 0.853 0.64 0.427 1.28 0.853 1.707 1.28 0.427 0.213 0.853 0.64 1.067 1.067 0.427 0.427 1.067 0.853 1.493 1.28l183.68 183.68-554.027 554.24z"  horiz-adv-x="1024" />

    
    <glyph glyph-name="ap-role1" unicode="&#58958;" d="M516.18 316.426c-154.75 0-280.717 125.966-280.717 280.785s125.898 280.785 280.717 280.785c154.887 0 280.853-125.966 280.853-280.785s-126.035-280.785-280.853-280.785zM516.18 809.461c-116.989 0-212.182-95.195-212.182-212.252s95.195-212.252 212.182-212.252c117.057 0 212.32 95.195 212.32 212.252s-95.263 212.252-212.32 212.252zM928.071-99.374h-822.618c-0.080 0-0.175 0-0.27 0-23.463 0-44.377 10.917-57.937 27.95-10.207 12.693-16.313 28.813-16.313 46.359 0 5.973 0.707 11.782 2.044 17.346 38.483 167.337 137.584 263.627 271.774 263.627v-68.534c-136.178 0-186.962-132.134-205.055-210.948l5.757-7.197h822.618c1.713 0.822 4.729 5.893 4.729 15.214 0 86.833-155.024 270.642-327.663 270.642h-228.288v68.534h228.288c204.233 0 396.197-211.565 396.197-339.177 0.068-48.591-30.841-83.818-73.264-83.818z"  horiz-adv-x="1024" />

    
    <glyph glyph-name="ap-prompt" unicode="&#58959;" d="M511.993 896c70.323 0 136.7-13.417 199.040-40.2 62.336-26.821 116.689-63.44 163.058-109.828 46.35-45.636 82.921-99.65 109.723-162.063 26.77-62.429 40.165-128.861 40.165-199.27 0-71.228-13.41-137.853-40.165-199.856-26.801-62.020-63.373-116.237-109.723-162.651-46.369-46.417-100.722-83.036-163.058-109.841-62.34-26.821-128.717-40.2-199.040-40.2-70.339 0-136.685 13.379-199.037 40.2-62.34 26.806-116.708 63.425-163.058 109.841-46.369 46.414-82.937 100.632-109.707 162.651-26.786 62.003-40.165 128.628-40.165 199.856 0 70.41 13.379 136.842 40.165 199.27 26.77 62.413 63.338 116.427 109.707 162.063 46.35 46.389 100.718 83.008 163.058 109.828 62.353 26.783 128.698 40.2 199.037 40.2zM669.070 421.859c7.19 7.981 13.791 16.383 19.788 25.208 5.997 8.799 10.976 18.009 14.985 27.599 3.978 9.619 7.19 19.813 9.59 30.622 2.403 10.806 3.597 21.781 3.597 33.010 0 27.985-5.392 54.41-16.195 79.221-10.784 24.785-25.369 46.401-43.758 64.833-18.402 19.186-40.165 33.982-65.344 44.407-25.179 10.374-51.761 15.593-79.724 15.593-27.996 0-54.558-5.207-79.737-15.593-25.183-10.425-46.974-25.221-65.344-44.407-18.405-18.431-32.974-40.046-43.777-64.833-10.799-24.812-16.175-51.236-16.175-79.221h103.105c0 13.596 2.592 26.591 7.795 39.009 5.184 12.393 12.598 23.419 22.187 33.013 8.78 9.603 19.375 16.985 31.769 22.204 12.39 5.202 25.784 7.802 40.177 7.802 14.381 0 27.758-2.611 40.165-7.802 12.377-5.219 22.968-12.601 31.764-22.204 9.593-9.593 16.972-20.62 22.175-33.013 5.199-12.419 7.811-25.413 7.811-39.009 0-7.212-0.605-14.223-1.814-21.014-1.193-6.806-2.992-13.021-5.392-18.598-3.197-6.422-6.601-12.431-10.198-18.009-3.577-5.616-7.776-10.422-12.582-14.402l-63.545-64.832c-8.813-9.606-16.988-19.81-24.575-30.606-7.603-10.793-13.791-22.626-18.578-35.403-5.616-12.010-9.798-24.606-12.598-37.819-2.816-13.2-4.202-27.013-4.202-41.403v-25.221h103.122c0 19.212 1.386 35.813 4.202 49.819 2.783 13.99 6.585 26.207 11.372 36.616 5.6 11.193 11.993 21.397 19.199 30.606 7.19 9.196 15.59 18.201 25.179 27l45.556 46.828zM563.562 25.725v102.049h-103.122v-102.049h103.122z"  horiz-adv-x="1025" />

    
    <glyph glyph-name="ap-folder" unicode="&#58960;" d="M904 20.1h-784c-30.9 0-56 25.1-56 56v615.8c0 30.9 25.1 56 56 56h231.6c12.8 0 25.2-4.4 35.2-12.4l123.1-99.5h394.1c30.9 0 56-25.1 56-56v-503.8c0-31-25.1-56.1-56-56.1zM904 76.1v0zM351.6 691.9h-231.6v-615.8h784l0.1 503.8h-394.1c-12.8 0-25.3 4.4-35.3 12.5l-123.1 99.5z"  horiz-adv-x="1024" />

    
    <glyph glyph-name="ap-preview" unicode="&#58961;" d="M511.2 486.4c-26.4 0-52.8-11.2-72-29.6-19.2-19.2-29.6-45.6-29.6-72 0-26.4 11.2-52.8 29.6-72 19.2-19.2 45.6-29.6 72-29.6 26.4 0 52.8 11.2 72 29.6 19.2 19.2 29.6 45.6 29.6 72 0 26.4-11.2 52.8-29.6 72-18.4 18.4-44.8 29.6-72 29.6zM512 691.2c-307.2 0-511.2-307.2-511.2-307.2s204.8-307.2 511.2-307.2 511.2 307.2 511.2 307.2-204 307.2-511.2 307.2zM512 181.6c-112 0-203.2 91.2-203.2 203.2 0 112 91.2 203.2 203.2 203.2 112 0 203.2-91.2 203.2-203.2 0-112-91.2-203.2-203.2-203.2z"  horiz-adv-x="1024" />

    
    <glyph glyph-name="ap-four" unicode="&#58962;" d="M716.8 209.067h-72.533v162.133c0 29.867-21.333 46.933-46.933 46.933s-46.933-21.333-46.933-46.933v-162.133h-183.467c17.067 51.2 64 200.533 106.667 332.8 25.6 81.067 55.467 166.4 81.067 260.267 0 4.267 4.267 8.533 4.267 17.067 0 21.333-8.533 38.4-34.133 42.667-25.6 8.533-51.2-4.267-59.733-29.867l-209.067-657.067c-4.267-17.067-4.267-29.867 8.533-42.667s21.333-21.333 38.4-21.333h251.733v-162.133c0-29.867 21.333-46.933 46.933-46.933s46.933 21.333 46.933 46.933v162.133h72.533c29.867 0 46.933 21.333 46.933 46.933s-21.333 51.2-51.2 51.2z"  horiz-adv-x="1024" />

    
    </font>
</defs>
</svg>
